<?xml version="1.0" encoding="UTF-8" standalone="no"?>
<!-- Created with Inkscape (http://www.inkscape.org/) -->

<svg
   xmlns:dc="http://purl.org/dc/elements/1.1/"
   xmlns:cc="http://creativecommons.org/ns#"
   xmlns:rdf="http://www.w3.org/1999/02/22-rdf-syntax-ns#"
   xmlns:svg="http://www.w3.org/2000/svg"
   xmlns="http://www.w3.org/2000/svg"
   xmlns:sodipodi="http://sodipodi.sourceforge.net/DTD/sodipodi-0.dtd"
   xmlns:inkscape="http://www.inkscape.org/namespaces/inkscape"
   width="152.02275"
   height="66.078728"
   id="svg3495"
   version="1.1"
   inkscape:version="0.48.4 r9939"
   sodipodi:docname="New document 8">
  <defs
     id="defs3497" />
  <sodipodi:namedview
     id="base"
     pagecolor="#ffffff"
     bordercolor="#666666"
     borderopacity="1.0"
     inkscape:pageopacity="0.0"
     inkscape:pageshadow="2"
     inkscape:zoom="0.35"
     inkscape:cx="351.01138"
     inkscape:cy="-55.532061"
     inkscape:document-units="px"
     inkscape:current-layer="layer1"
     showgrid="false"
     fit-margin-top="10"
     fit-margin-left="10"
     fit-margin-right="10"
     fit-margin-bottom="10"
     inkscape:window-width="515"
     inkscape:window-height="416"
     inkscape:window-x="698"
     inkscape:window-y="306"
     inkscape:window-maximized="0" />
  <metadata
     id="metadata3500">
    <rdf:RDF>
      <cc:Work
         rdf:about="">
        <dc:format>image/svg+xml</dc:format>
        <dc:type
           rdf:resource="http://purl.org/dc/dcmitype/StillImage" />
        <dc:title></dc:title>
      </cc:Work>
    </rdf:RDF>
  </metadata>
  <g
     inkscape:label="Layer 1"
     inkscape:groupmode="layer"
     id="layer1"
     transform="translate(-23.988625,-410.7514)">
    <g
       id="g3033"
       transform="matrix(0.0904297,0,0,0.0904297,26.306079,413.06867)">
      <path
         id="path3035"
         d="m 594.506,339.729 c 0,140.709 -114.058,254.782 -254.781,254.782 -140.701,0 -254.769,-114.071 -254.769,-254.782 0,-140.701 114.067,-254.771 254.769,-254.771 140.723,-0.002 254.781,114.069 254.781,254.771 z"
         inkscape:connector-curvature="0"
         style="fill:#ffffff" />
      <path
         id="path3037"
         d="m 581.064,339.729 c 0,133.294 -108.045,241.349 -241.34,241.349 -133.279,0 -241.331,-108.055 -241.331,-241.349 0,-133.285 108.052,-241.331 241.331,-241.331 133.297,-10e-4 241.34,108.045 241.34,241.331 z"
         inkscape:connector-curvature="0"
         style="fill:#ff8800" />
      <g
         id="g3039">
        <path
           id="path3041"
           d="m 339.594,156.111 c -101.358,0 -183.482,82.39 -183.482,183.758 0,101.351 82.124,183.751 183.482,183.751 101.346,0 183.758,-82.4 183.758,-183.751 0,-101.35 -82.414,-183.758 -183.758,-183.758 l 0,0 z"
           inkscape:connector-curvature="0"
           style="fill:#ffffff" />
        <path
           id="path3043"
           d="m 339.594,169.912 c -93.739,0 -169.676,76.197 -169.676,169.957 0,93.732 75.937,169.938 169.676,169.938 93.731,0 169.952,-76.205 169.952,-169.938 0,-93.743 -76.221,-169.957 -169.952,-169.957 l 0,0 z"
           inkscape:connector-curvature="0"
           style="fill:#ffffff" />
        <path
           id="path3045"
           d="m 291.504,382.127 c 2.098,-1.143 4.346,-2.213 6.695,-3.232 27.987,-12.062 41.837,-33.271 41.837,-59.375 0,-25.88 -19.126,-48.435 -48.532,-56.321 v 118.928 l 0,0 z M 347.732,244.37 c 62.26,1.932 98.458,30.257 98.458,71.805 0,37.98 -23.481,58.768 -100.763,72.48 -57.562,10.227 -72.794,24.107 -72.794,47.812 0,14.522 4.853,25.646 13.348,35.608 -12.931,-8.118 -23.323,-24.883 -23.323,-43.857 0,-11.658 3.444,-22.712 11.255,-32.059 V 260.376 c -1.921,-0.123 -3.861,-0.184 -5.848,-0.184 -0.862,0 -1.701,0.035 -2.521,0.087 -1.05,0.07 -1.374,-1.15 -0.271,-1.626 2.665,-1.115 5.556,-2.213 8.641,-3.249 v -28.537 c 0,-0.589 0.465,-1.062 1.054,-1.062 h 15.478 c 0.577,0 1.06,0.474 1.06,1.062 v 23.659 c 18.488,-4.242 39.626,-6.675 56.226,-6.156 l 0,0 z"
           inkscape:connector-curvature="0"
           style="fill:#1d1d1b" />
        <path
           id="path3047"
           d="m 339.602,186.2 c 84.925,0 153.646,68.748 153.646,153.668 0,84.913 -68.722,153.65 -153.646,153.65 -84.899,0 -153.388,-68.737 -153.388,-153.65 0,-84.92 68.488,-153.668 153.388,-153.668 l 0,0 z m -0.008,-16.288 c -93.739,0 -169.676,76.197 -169.676,169.957 0,93.732 75.937,169.938 169.676,169.938 93.731,0 169.952,-76.205 169.952,-169.938 0,-93.743 -76.221,-169.957 -169.952,-169.957 l 0,0 z"
           inkscape:connector-curvature="0"
           style="fill:#1d1d1b" />
      </g>
      <path
         id="path3049"
         d="m 695.682,324.893 c 9.902,0 16.276,-5.718 16.276,-13.715 v -6.033 c 0,-7.964 -6.374,-14.345 -16.276,-14.345 h -23.589 c -2.228,0 -2.859,0.928 -2.859,2.844 v 28.72 c 0,1.587 0.632,2.528 2.859,2.528 h 23.589 z m -59.977,94.705 c -1.275,0 -2.202,-0.61 -2.202,-2.546 V 262.394 c 0,-1.933 0.927,-2.526 2.202,-2.526 h 59.037 c 31.226,0 51.943,16.242 51.943,44.964 v 8.262 c 0,24.869 -21.33,41.113 -51.943,41.113 h -22.648 c -2.228,0 -2.859,1.01 -2.859,2.595 v 60.251 c 0,1.936 -0.978,2.546 -2.556,2.546 l -30.974,-10e-4 0,0 z"
         inkscape:connector-curvature="0"
         style="fill:#ffffff" />
      <path
         id="path3051"
         d="m 781.464,419.598 c -1.249,0 -2.228,-0.61 -2.228,-2.546 V 262.394 c 0,-1.933 0.979,-2.526 2.228,-2.526 h 30.929 c 0.954,0 2.581,0.594 2.581,2.526 v 154.658 c 0,1.936 -0.938,2.546 -2.581,2.546 h -30.929 z"
         inkscape:connector-curvature="0"
         style="fill:#ffffff" />
      <path
         id="path3053"
         d="m 932.311,324.893 c 9.562,0 16.264,-5.718 16.264,-14.657 v -4.148 c 0,-8.906 -6.355,-15.286 -16.264,-15.286 h -30.315 c -2.229,0 -2.828,0.928 -2.828,2.844 v 28.72 c 0,1.587 0.601,2.528 2.828,2.528 l 30.315,-0.001 0,0 z m -66.655,94.705 c -1.27,0 -2.21,-0.61 -2.21,-2.546 V 262.394 c 0,-1.933 0.94,-2.526 2.21,-2.526 h 66.652 c 31.234,0 51.676,18.474 51.676,48.449 v 2.232 c 0,15.282 -8.325,28.076 -19.779,34.403 -1.318,0.694 -1.926,1.671 -1.926,2.561 0,0.994 0.335,1.604 0.606,2.581 l 25.861,66.362 c 0,0.595 0.327,0.892 0.327,1.238 0,0.961 -0.611,1.901 -2.575,1.901 h -32.854 c -0.933,0 -1.887,-0.61 -2.26,-1.901 l -24.483,-61.853 c -0.645,-1.287 -1.28,-1.638 -2.246,-1.638 h -22.662 c -2.229,0 -2.828,1.01 -2.828,2.595 v 60.251 c 0,1.936 -0.984,2.546 -2.537,2.546 l -30.972,0.003 0,0 z"
         inkscape:connector-curvature="0"
         style="fill:#ffffff" />
      <path
         id="path3055"
         d="m 1183.258,419.598 c -1.255,0 -2.194,-0.61 -2.194,-2.546 V 293.644 c 0,-1.916 -0.658,-2.844 -3.214,-2.844 h -30.246 c -1.636,0 -2.583,-0.628 -2.583,-2.262 v -26.145 c 0,-1.933 0.947,-2.526 2.583,-2.526 h 102.676 c 0.586,0 2.241,0.594 2.241,2.526 v 26.145 c 0,1.634 -0.992,2.262 -2.241,2.262 h -30.664 c -2.557,0 -3.143,0.928 -3.143,2.844 v 123.408 c 0,1.936 -0.96,2.546 -2.278,2.546 h -30.937 z"
         inkscape:connector-curvature="0"
         style="fill:#ffffff" />
      <path
         id="path3057"
         d="m 1285.335,419.598 c -1.313,0 -2.247,-0.61 -2.247,-2.546 V 262.394 c 0,-1.933 0.934,-2.526 2.247,-2.526 h 101.085 c 1.274,0 2.588,0.594 2.588,2.526 v 26.145 c 0,1.634 -0.992,2.262 -2.588,2.262 h -64.71 c -2.252,0 -2.91,0.928 -2.91,2.844 v 26.771 c 0,1.65 0.658,2.545 2.91,2.545 h 53.219 c 1.312,0 2.902,0.694 2.902,2.247 v 26.457 c 0,1.949 -1.59,2.543 -2.902,2.543 h -53.219 c -2.252,0 -2.91,1.01 -2.91,2.595 v 29.001 c 0,1.605 0.658,2.547 2.91,2.547 h 64.71 c 1.274,0 2.588,0.628 2.588,2.578 v 26.125 c 0,1.936 -0.992,2.546 -2.588,2.546 h -101.085 v -0.002 z"
         inkscape:connector-curvature="0"
         style="fill:#ffffff" />
      <path
         id="path3059"
         d="m 1430.778,419.598 c -1.319,0 -2.261,-0.61 -2.261,-2.546 V 262.394 c 0,-1.933 0.94,-2.526 2.261,-2.526 h 26.745 c 1.691,0 2.582,0.594 3.241,1.898 l 44.246,81.933 c 2.91,5.42 5.17,11.172 5.446,11.831 h 0.941 c 0,-1.917 -0.941,-24.869 -0.941,-46.601 v -46.536 c 0,-1.933 0.663,-2.526 2.203,-2.526 h 29.672 c 1.295,0 2.574,0.594 2.574,2.526 v 154.658 c 0,1.936 -0.944,2.546 -2.586,2.546 h -26.752 c -0.939,0 -1.598,-0.61 -2.53,-1.901 l -44.681,-80.691 c -2.853,-5.104 -5.104,-10.507 -5.104,-10.808 h -0.941 c 0,1.555 1.313,24.854 1.313,45.263 v 45.593 c 0,1.936 -1.313,2.546 -2.86,2.546 l -29.986,-10e-4 0,0 z"
         inkscape:connector-curvature="0"
         style="fill:#ffffff" />
      <path
         id="path3061"
         d="m 1058.197,366.083 c -2.201,0 -2.536,-0.961 -2.536,-2.562 l 14.621,-55.985 0.593,-2.894 h 0.186 3.848 0.166 l 0.637,2.894 14.616,55.985 c 0,1.602 -0.31,2.562 -2.55,2.562 h -29.581 z m 37.55,27 c 1.925,0 2.536,0.314 2.864,1.571 l 6.545,22.951 c 0.31,1.291 1.299,1.901 2.512,1.901 h 28.809 c 1.86,0 2.797,-0.61 2.827,-1.8 0,-0.35 -0.127,-0.928 -0.271,-1.341 l -1.148,-3.982 -44.883,-150.823 c -0.405,-1.306 -0.985,-1.603 -2.555,-1.603 H 1055.9 c -1.615,0 -2.203,0.348 -2.575,1.603 l -44.206,150.823 -1.105,3.982 c -0.213,0.478 -0.265,0.991 -0.265,1.341 0.052,1.188 0.94,1.8 2.813,1.8 h 27.882 c 1.263,0 2.202,-0.61 2.562,-1.901 l 6.549,-22.951 c 0.298,-1.257 0.923,-1.571 2.86,-1.571 h 45.332 z"
         inkscape:connector-curvature="0"
         style="fill:#ffffff" />
      <path
         id="path3063"
         d="m 695.682,324.893 c 9.902,0 16.276,-5.718 16.276,-13.715 v -6.033 c 0,-7.964 -6.374,-14.345 -16.276,-14.345 h -23.589 c -2.228,0 -2.859,0.928 -2.859,2.844 v 28.72 c 0,1.587 0.632,2.528 2.859,2.528 h 23.589 z m -59.977,94.705 c -1.275,0 -2.202,-0.61 -2.202,-2.546 V 262.394 c 0,-1.933 0.927,-2.526 2.202,-2.526 h 59.037 c 31.226,0 51.943,16.242 51.943,44.964 v 8.262 c 0,24.869 -21.33,41.113 -51.943,41.113 h -22.648 c -2.228,0 -2.859,1.01 -2.859,2.595 v 60.251 c 0,1.936 -0.978,2.546 -2.556,2.546 l -30.974,-10e-4 0,0 z"
         inkscape:connector-curvature="0"
         style="fill:#ffffff" />
      <path
         id="path3065"
         d="m 781.464,419.598 c -1.249,0 -2.228,-0.61 -2.228,-2.546 V 262.394 c 0,-1.933 0.979,-2.526 2.228,-2.526 h 30.929 c 0.954,0 2.581,0.594 2.581,2.526 v 154.658 c 0,1.936 -0.938,2.546 -2.581,2.546 h -30.929 z"
         inkscape:connector-curvature="0"
         style="fill:#ffffff" />
      <path
         id="path3067"
         d="m 932.311,324.893 c 9.562,0 16.264,-5.718 16.264,-14.657 v -4.148 c 0,-8.906 -6.355,-15.286 -16.264,-15.286 h -30.315 c -2.229,0 -2.828,0.928 -2.828,2.844 v 28.72 c 0,1.587 0.601,2.528 2.828,2.528 l 30.315,-0.001 0,0 z m -66.655,94.705 c -1.27,0 -2.21,-0.61 -2.21,-2.546 V 262.394 c 0,-1.933 0.94,-2.526 2.21,-2.526 h 66.652 c 31.234,0 51.676,18.474 51.676,48.449 v 2.232 c 0,15.282 -8.325,28.076 -19.779,34.403 -1.318,0.694 -1.926,1.671 -1.926,2.561 0,0.994 0.335,1.604 0.606,2.581 l 25.861,66.362 c 0,0.595 0.327,0.892 0.327,1.238 0,0.961 -0.611,1.901 -2.575,1.901 h -32.854 c -0.933,0 -1.887,-0.61 -2.26,-1.901 l -24.483,-61.853 c -0.645,-1.287 -1.28,-1.638 -2.246,-1.638 h -22.662 c -2.229,0 -2.828,1.01 -2.828,2.595 v 60.251 c 0,1.936 -0.984,2.546 -2.537,2.546 l -30.972,0.003 0,0 z"
         inkscape:connector-curvature="0"
         style="fill:#ffffff" />
      <path
         id="path3069"
         d="m 1183.258,419.598 c -1.255,0 -2.194,-0.61 -2.194,-2.546 V 293.644 c 0,-1.916 -0.658,-2.844 -3.214,-2.844 h -30.246 c -1.636,0 -2.583,-0.628 -2.583,-2.262 v -26.145 c 0,-1.933 0.947,-2.526 2.583,-2.526 h 102.676 c 0.586,0 2.241,0.594 2.241,2.526 v 26.145 c 0,1.634 -0.992,2.262 -2.241,2.262 h -30.664 c -2.557,0 -3.143,0.928 -3.143,2.844 v 123.408 c 0,1.936 -0.96,2.546 -2.278,2.546 h -30.937 z"
         inkscape:connector-curvature="0"
         style="fill:#ffffff" />
      <path
         id="path3071"
         d="m 1285.335,419.598 c -1.313,0 -2.247,-0.61 -2.247,-2.546 V 262.394 c 0,-1.933 0.934,-2.526 2.247,-2.526 h 101.085 c 1.274,0 2.588,0.594 2.588,2.526 v 26.145 c 0,1.634 -0.992,2.262 -2.588,2.262 h -64.71 c -2.252,0 -2.91,0.928 -2.91,2.844 v 26.771 c 0,1.65 0.658,2.545 2.91,2.545 h 53.219 c 1.312,0 2.902,0.694 2.902,2.247 v 26.457 c 0,1.949 -1.59,2.543 -2.902,2.543 h -53.219 c -2.252,0 -2.91,1.01 -2.91,2.595 v 29.001 c 0,1.605 0.658,2.547 2.91,2.547 h 64.71 c 1.274,0 2.588,0.628 2.588,2.578 v 26.125 c 0,1.936 -0.992,2.546 -2.588,2.546 h -101.085 v -0.002 z"
         inkscape:connector-curvature="0"
         style="fill:#ffffff" />
      <path
         id="path3073"
         d="m 1430.778,419.598 c -1.319,0 -2.261,-0.61 -2.261,-2.546 V 262.394 c 0,-1.933 0.94,-2.526 2.261,-2.526 h 26.745 c 1.691,0 2.582,0.594 3.241,1.898 l 44.246,81.933 c 2.91,5.42 5.17,11.172 5.446,11.831 h 0.941 c 0,-1.917 -0.941,-24.869 -0.941,-46.601 v -46.536 c 0,-1.933 0.663,-2.526 2.203,-2.526 h 29.672 c 1.295,0 2.574,0.594 2.574,2.526 v 154.658 c 0,1.936 -0.944,2.546 -2.586,2.546 h -26.752 c -0.939,0 -1.598,-0.61 -2.53,-1.901 l -44.681,-80.691 c -2.853,-5.104 -5.104,-10.507 -5.104,-10.808 h -0.941 c 0,1.555 1.313,24.854 1.313,45.263 v 45.593 c 0,1.936 -1.313,2.546 -2.86,2.546 l -29.986,-10e-4 0,0 z"
         inkscape:connector-curvature="0"
         style="fill:#ffffff" />
      <path
         id="path3075"
         d="m 1058.197,366.083 c -2.201,0 -2.536,-0.961 -2.536,-2.562 l 14.621,-55.985 0.593,-2.894 h 0.186 3.848 0.166 l 0.637,2.894 14.616,55.985 c 0,1.602 -0.31,2.562 -2.55,2.562 h -29.581 z m 37.55,27 c 1.925,0 2.536,0.314 2.864,1.571 l 6.545,22.951 c 0.31,1.291 1.299,1.901 2.512,1.901 h 28.809 c 1.86,0 2.797,-0.61 2.827,-1.8 0,-0.35 -0.127,-0.928 -0.271,-1.341 l -1.148,-3.982 -44.883,-150.823 c -0.405,-1.306 -0.985,-1.603 -2.555,-1.603 H 1055.9 c -1.615,0 -2.203,0.348 -2.575,1.603 l -44.206,150.823 -1.105,3.982 c -0.213,0.478 -0.265,0.991 -0.265,1.341 0.052,1.188 0.94,1.8 2.813,1.8 h 27.882 c 1.263,0 2.202,-0.61 2.562,-1.901 l 6.549,-22.951 c 0.298,-1.257 0.923,-1.571 2.86,-1.571 h 45.332 z"
         inkscape:connector-curvature="0"
         style="fill:#ffffff" />
    </g>
  </g>
</svg>
