<?xml version="1.0" encoding="UTF-8" standalone="no"?>
<!-- Created with Inkscape (http://www.inkscape.org/) -->

<svg
   xmlns:dc="http://purl.org/dc/elements/1.1/"
   xmlns:cc="http://creativecommons.org/ns#"
   xmlns:rdf="http://www.w3.org/1999/02/22-rdf-syntax-ns#"
   xmlns:svg="http://www.w3.org/2000/svg"
   xmlns="http://www.w3.org/2000/svg"
   xmlns:sodipodi="http://sodipodi.sourceforge.net/DTD/sodipodi-0.dtd"
   xmlns:inkscape="http://www.inkscape.org/namespaces/inkscape"
   id="svg2"
   version="1.1"
   inkscape:version="0.48.4 r9939"
   width="398"
   height="230"
   xml:space="preserve"
   sodipodi:docname="MehrSicherheit.svg"><metadata
     id="metadata8"><rdf:RDF><cc:Work
         rdf:about=""><dc:format>image/svg+xml</dc:format><dc:type
           rdf:resource="http://purl.org/dc/dcmitype/StillImage" /><dc:title></dc:title></cc:Work></rdf:RDF></metadata><defs
     id="defs6"><clipPath
       clipPathUnits="userSpaceOnUse"
       id="clipPath16"><path
         d="m 0,66.907 248.317,0 0,236.4 -248.317,0 0,-236.4 z"
         id="path18"
         inkscape:connector-curvature="0" /></clipPath><clipPath
       clipPathUnits="userSpaceOnUse"
       id="clipPath30"><path
         d="m 247.837,0 177.36,0 0,303.307 -177.36,0 0,-303.307 z"
         id="path32"
         inkscape:connector-curvature="0" /></clipPath><clipPath
       clipPathUnits="userSpaceOnUse"
       id="clipPath44"><path
         d="m 0,0 248.317,0 0,67.387 L 0,67.387 0,0 z"
         id="path46"
         inkscape:connector-curvature="0" /></clipPath><clipPath
       clipPathUnits="userSpaceOnUse"
       id="clipPath82"><path
         d="m 0,0 425.197,0 0,303.307 L 0,303.307 0,0 z"
         id="path84"
         inkscape:connector-curvature="0" /></clipPath><clipPath
       clipPathUnits="userSpaceOnUse"
       id="clipPath100"><path
         d="m 0,0 425.197,0 0,303.307 L 0,303.307 0,0 z"
         id="path102"
         inkscape:connector-curvature="0" /></clipPath><clipPath
       clipPathUnits="userSpaceOnUse"
       id="clipPath118"><path
         d="m 0,0 425.197,0 0,303.307 L 0,303.307 0,0 z"
         id="path120"
         inkscape:connector-curvature="0" /></clipPath><clipPath
       clipPathUnits="userSpaceOnUse"
       id="clipPath136"><path
         d="m 0,0 425.197,0 0,303.307 L 0,303.307 0,0 z"
         id="path138"
         inkscape:connector-curvature="0" /></clipPath></defs><sodipodi:namedview
     pagecolor="#ffffff"
     bordercolor="#666666"
     borderopacity="1"
     objecttolerance="10"
     gridtolerance="10"
     guidetolerance="10"
     inkscape:pageopacity="0"
     inkscape:pageshadow="2"
     inkscape:window-width="573"
     inkscape:window-height="416"
     id="namedview4"
     showgrid="false"
     inkscape:zoom="0.4401539"
     inkscape:cx="65.820098"
     inkscape:cy="114.16705"
     inkscape:window-x="1071"
     inkscape:window-y="518"
     inkscape:window-maximized="0"
     inkscape:current-layer="g10"
     fit-margin-top="10"
     fit-margin-left="10"
     fit-margin-right="10"
     fit-margin-bottom="10" /><g
     id="g10"
     inkscape:groupmode="layer"
     inkscape:label="MehrSicherheitPostkarte1"
     transform="matrix(1.25,0,0,-1.25,-26.835937,235.35159)"><rect
       style="fill:#000000;fill-opacity:1;stroke:none"
       id="rect3261"
       width="429.39526"
       height="248.54944"
       x="-45.780457"
       y="-205.57449"
       transform="scale(1,-1)"
       inkscape:export-filename="/var/www/nichtszuverbergen/code/FINAL/thumb.png"
       inkscape:export-xdpi="66.739998"
       inkscape:export-ydpi="66.739998" /><path
       d="m 29.897948,133.97796 231.541552,0 0,36.34242 -231.541552,0 0,-36.34242 z"
       style="fill:#f39315;fill-opacity:1;fill-rule:nonzero;stroke:none"
       id="path90"
       inkscape:connector-curvature="0" /><g
       transform="matrix(1,0,0,-1,0,64)"
       id="text92"><path
         d="m 39.658798,-76.203873 8.384766,0 c 4.318941,0 6.691992,-2.388871 6.691992,-6.201562 l 0,-7.925977 c 0,-3.812692 -2.357231,-6.201563 -6.691992,-6.201563 l -8.384766,0 c -0.332227,0 -0.537891,0.205664 -0.537891,0.53789 l 0,19.253322 c 0,0.332226 0.205664,0.53789 0.537891,0.53789 m 4.429687,-4.03418 c -0.332226,0 -0.53789,-0.205664 -0.53789,-0.53789 l 0,-11.184962 c 0,-0.332226 0.205664,-0.53789 0.53789,-0.53789 l 4.00254,0 c 1.249803,0 2.214843,0.870118 2.214843,2.214844 l 0,7.878516 c 0,1.344725 -0.96504,2.167382 -2.214843,2.167382 l -4.00254,0"
         style="font-size:32.40000153px;font-variant:normal;font-weight:normal;font-stretch:normal;writing-mode:lr-tb;fill:#ffffff;fill-opacity:1;fill-rule:nonzero;stroke:none;font-family:Politics Head Bold;-inkscape-font-specification:PoliticsHead-Bold"
         id="path3308"
         inkscape:connector-curvature="0" /><path
         d="m 71.900596,-76.203873 c 0.332226,0 0.537891,-0.205664 0.537891,-0.53789 l 0,-2.958399 c 0,-0.332226 -0.205665,-0.537891 -0.537891,-0.537891 l -7.941797,0 c -0.332226,0 -0.537891,-0.205664 -0.537891,-0.53789 l 0,-3.116602 c 0,-0.332226 0.205665,-0.537891 0.537891,-0.537891 l 6.517969,0 c 0.332226,0 0.537891,-0.205664 0.537891,-0.53789 l 0,-2.958399 c 0,-0.332226 -0.205665,-0.53789 -0.537891,-0.53789 l -6.517969,0 c -0.332226,0 -0.537891,-0.205665 -0.537891,-0.537891 l 0,-2.958399 c 0,-0.332226 0.205665,-0.53789 0.537891,-0.53789 l 7.941797,0 c 0.332226,0 0.537891,-0.205665 0.537891,-0.537891 l 0,-2.958399 c 0,-0.332226 -0.205665,-0.53789 -0.537891,-0.53789 l -12.371485,0 c -0.332226,0 -0.53789,0.205664 -0.53789,0.53789 l 0,19.253322 c 0,0.332226 0.205664,0.53789 0.53789,0.53789 l 12.371485,0"
         style="font-size:32.40000153px;font-variant:normal;font-weight:normal;font-stretch:normal;writing-mode:lr-tb;fill:#ffffff;fill-opacity:1;fill-rule:nonzero;stroke:none;font-family:Politics Head Bold;-inkscape-font-specification:PoliticsHead-Bold"
         id="path3310"
         inkscape:connector-curvature="0" /><path
         d="m 77.437705,-76.203873 3.338086,0 c 0.332227,0 0.537891,-0.205664 0.537891,-0.53789 l 0,-5.426368 c 0,-2.990036 -0.442969,-6.328125 -0.442969,-6.502149 l 0.0791,0 c 0.04746,0.0791 0.743555,2.483791 1.202344,3.622852 l 2.420508,5.932618 c 0.0791,0.205664 0.268945,0.300586 0.553711,0.300586 l 2.499609,0 c 0.221484,0 0.411328,-0.09492 0.49043,-0.284766 l 2.51543,-5.869336 c 0.458788,-1.139062 1.123242,-3.480469 1.123242,-3.559571 l 0.126562,0 c 0,0.174024 -0.411328,3.496292 -0.411328,6.391407 l 0,5.394727 c 0,0.332226 0.205665,0.53789 0.537891,0.53789 l 3.274805,0 c 0.332226,0 0.53789,-0.205664 0.53789,-0.53789 l 0,-19.411525 c 0,-0.332226 -0.205664,-0.53789 -0.53789,-0.53789 l -3.575391,0 c -0.237305,0 -0.427149,0.110742 -0.49043,0.284765 l -4.334766,10.188282 c -0.205663,0.53789 -0.379687,1.218164 -0.379687,1.249805 l -0.158203,0 c 0,-0.03164 -0.142383,-0.664454 -0.379688,-1.249805 l -4.445508,-10.188282 c -0.0791,-0.174023 -0.253125,-0.284765 -0.49043,-0.284765 l -3.591211,0 c -0.332226,0 -0.53789,0.205664 -0.53789,0.53789 l 0,19.411525 c 0,0.332226 0.205664,0.53789 0.53789,0.53789"
         style="font-size:32.40000153px;font-variant:normal;font-weight:normal;font-stretch:normal;writing-mode:lr-tb;fill:#ffffff;fill-opacity:1;fill-rule:nonzero;stroke:none;font-family:Politics Head Bold;-inkscape-font-specification:PoliticsHead-Bold"
         id="path3312"
         inkscape:connector-curvature="0" /><path
         d="m 109.31564,-75.887466 c 4.30312,0 6.48633,-2.278129 6.48633,-5.711133 l 0,-9.539649 c 0,-3.575388 -2.02501,-5.711133 -6.48633,-5.711133 l -2.26231,0 c -4.30312,0 -6.48632,2.293948 -6.48632,5.711133 l 0,9.539649 c 0,3.575387 2.025,5.711133 6.48632,5.711133 l 2.26231,0 m 0,-4.03418 -2.26231,0 c -1.2498,0 -2.05664,-0.901759 -2.05664,-2.151563 l 0,-8.59043 c 0,-1.170702 0.79102,-2.151563 2.05664,-2.151563 l 2.26231,0 c 1.2498,0 2.05664,0.90176 2.05664,2.151563 l 0,8.59043 c 0,1.186522 -0.79102,2.151563 -2.05664,2.151563"
         style="font-size:32.40000153px;font-variant:normal;font-weight:normal;font-stretch:normal;writing-mode:lr-tb;fill:#ffffff;fill-opacity:1;fill-rule:nonzero;stroke:none;font-family:Politics Head Bold;-inkscape-font-specification:PoliticsHead-Bold"
         id="path3314"
         inkscape:connector-curvature="0" /><path
         d="m 121.10177,-76.203873 3.3539,0 c 0.33223,0 0.53789,-0.205664 0.53789,-0.53789 l 0,-6.02754 1.32891,-1.661133 c 0.0633,-0.0791 0.17402,-0.158203 0.25313,-0.158203 0.12656,0 0.2373,0.110743 0.28476,0.189844 l 4.9834,7.862696 c 0.14238,0.221484 0.34805,0.332226 0.56953,0.332226 l 3.92344,0 c 0.33223,0 0.53789,-0.205664 0.53789,-0.553711 0,-0.126562 -0.0316,-0.221484 -0.0949,-0.316406 l -7.35645,-10.789454 c -0.0633,-0.09492 -0.0949,-0.126562 -0.0949,-0.174023 0,-0.04746 0.0158,-0.0791 0.0949,-0.174023 l 6.16992,-7.56211 c 0.0791,-0.0791 0.12657,-0.237305 0.12657,-0.379688 0,-0.332226 -0.20567,-0.53789 -0.53789,-0.53789 l -3.63868,0 c -0.17402,0 -0.3164,0.06328 -0.42714,0.205664 l -6.37559,8.1 c 0.1582,-0.55371 0.25312,-1.392188 0.25312,-2.199023 l 0,-5.568751 c 0,-0.332226 -0.20566,-0.53789 -0.53789,-0.53789 l -3.3539,0 c -0.33223,0 -0.53789,0.205664 -0.53789,0.53789 l 0,19.411525 c 0,0.332226 0.20566,0.53789 0.53789,0.53789"
         style="font-size:32.40000153px;font-variant:normal;font-weight:normal;font-stretch:normal;writing-mode:lr-tb;fill:#ffffff;fill-opacity:1;fill-rule:nonzero;stroke:none;font-family:Politics Head Bold;-inkscape-font-specification:PoliticsHead-Bold"
         id="path3316"
         inkscape:connector-curvature="0" /><path
         d="m 148.80313,-88.005826 -3.78105,0 c -0.33223,0 -0.53789,-0.205665 -0.53789,-0.537891 l 0,-3.417188 c 0,-0.332226 0.20566,-0.53789 0.53789,-0.53789 l 3.78105,0 c 1.24981,0 2.21485,0.838477 2.21485,1.961719 l 0,0.55371 c 0,1.123242 -0.99668,1.97754 -2.21485,1.97754 m -8.21074,11.801953 3.35391,0 c 0.33222,0 0.53789,-0.205664 0.53789,-0.53789 l 0,-6.834376 c 0,-0.332226 0.20566,-0.53789 0.53789,-0.53789 l 2.73691,0 c 0.14239,0 0.26895,0.06328 0.33223,0.221484 l 3.08496,7.435547 c 0.0791,0.174024 0.18984,0.253125 0.31641,0.253125 l 3.82851,0 c 0.25313,0 0.37969,-0.126562 0.37969,-0.253125 0,-0.126562 -0.0633,-0.332227 -0.20566,-0.664453 l -3.10078,-7.546289 c -0.0475,-0.126563 -0.0791,-0.221485 -0.0791,-0.348047 0,-0.126563 0.0791,-0.221485 0.23731,-0.316406 1.81933,-1.107421 2.67363,-2.752737 2.67363,-4.951758 0,-3.828512 -2.42051,-6.249024 -6.47051,-6.249024 l -8.16328,0 c -0.33222,0 -0.53789,0.205664 -0.53789,0.53789 l 0,19.253322 c 0,0.332226 0.20567,0.53789 0.53789,0.53789"
         style="font-size:32.40000153px;font-variant:normal;font-weight:normal;font-stretch:normal;writing-mode:lr-tb;fill:#ffffff;fill-opacity:1;fill-rule:nonzero;stroke:none;font-family:Politics Head Bold;-inkscape-font-specification:PoliticsHead-Bold"
         id="path3318"
         inkscape:connector-curvature="0" /><path
         d="m 164.32286,-83.465396 c -0.28477,0 -0.36387,-0.126563 -0.31641,-0.332227 l 1.83516,-6.834375 0.0791,-0.648633 0.55371,0 0.0791,0.648633 1.81934,6.834375 c 0.0475,0.205664 -0.0475,0.332227 -0.33223,0.332227 l -3.71777,0 m 4.92012,4.034179 c 0.2373,0 0.3164,0.03164 0.36386,0.189844 l 0.74356,2.800196 c 0.0475,0.158203 0.1582,0.237304 0.33223,0.237304 l 3.92343,0 c 0.23731,0 0.34805,-0.0791 0.34805,-0.237304 0,-0.04746 0,-0.0791 -0.0316,-0.174024 l -5.80605,-19.743751 c -0.0633,-0.221484 -0.26895,-0.332226 -0.50625,-0.332226 l -4.79356,0 c -0.2373,0 -0.44297,0.110742 -0.50625,0.332226 0,0 -5.77441,19.569728 -5.79023,19.617189 -0.0316,0.0791 -0.0633,0.221484 -0.0633,0.300586 0,0.158203 0.12657,0.237304 0.36387,0.237304 l 3.90762,0 c 0.1582,0 0.26894,-0.0791 0.31641,-0.237304 l 0.74355,-2.800196 c 0.0475,-0.158203 0.11074,-0.189844 0.36387,-0.189844 l 6.09082,0"
         style="font-size:32.40000153px;font-variant:normal;font-weight:normal;font-stretch:normal;writing-mode:lr-tb;fill:#ffffff;fill-opacity:1;fill-rule:nonzero;stroke:none;font-family:Politics Head Bold;-inkscape-font-specification:PoliticsHead-Bold"
         id="path3320"
         inkscape:connector-curvature="0" /><path
         d="m 180.61779,-76.203873 3.35391,0 c 0.33222,0 0.53789,-0.205664 0.53789,-0.53789 l 0,-15.219142 c 0,-0.332226 0.20566,-0.53789 0.53789,-0.53789 l 3.54375,0 c 0.33223,0 0.53789,-0.205665 0.53789,-0.537891 l 0,-2.958399 c 0,-0.332226 -0.20566,-0.53789 -0.53789,-0.53789 l -12.59297,0 c -0.33223,0 -0.53789,0.205664 -0.53789,0.53789 l 0,2.958399 c 0,0.332226 0.20566,0.537891 0.53789,0.537891 l 3.54375,0 c 0.33223,0 0.53789,0.205664 0.53789,0.53789 l 0,15.219142 c 0,0.332226 0.20567,0.53789 0.53789,0.53789"
         style="font-size:32.40000153px;font-variant:normal;font-weight:normal;font-stretch:normal;writing-mode:lr-tb;fill:#ffffff;fill-opacity:1;fill-rule:nonzero;stroke:none;font-family:Politics Head Bold;-inkscape-font-specification:PoliticsHead-Bold"
         id="path3322"
         inkscape:connector-curvature="0" /><path
         d="m 193.62208,-76.203873 3.35391,0 c 0.33223,0 0.53789,-0.205664 0.53789,-0.53789 l 0,-19.411525 c 0,-0.332226 -0.20566,-0.53789 -0.53789,-0.53789 l -3.35391,0 c -0.33222,0 -0.53789,0.205664 -0.53789,0.53789 l 0,19.411525 c 0,0.332226 0.20567,0.53789 0.53789,0.53789"
         style="font-size:32.40000153px;font-variant:normal;font-weight:normal;font-stretch:normal;writing-mode:lr-tb;fill:#ffffff;fill-opacity:1;fill-rule:nonzero;stroke:none;font-family:Politics Head Bold;-inkscape-font-specification:PoliticsHead-Bold"
         id="path3324"
         inkscape:connector-curvature="0" /><path
         d="m 208.61974,-75.887466 c 4.52461,0 7.1666,-2.436332 7.1666,-6.233204 0,-2.768552 -1.93008,-4.888478 -6.13828,-6.312305 -2.59453,-0.885936 -3.41719,-1.550392 -3.41719,-2.562891 0,-1.044139 0.87012,-1.882617 2.40469,-1.882617 1.37637,0 2.40469,0.632814 2.8793,1.661133 0.11074,0.237305 0.30058,0.363867 0.49043,0.363867 0.0791,0 0.1582,-0.01582 0.2373,-0.04746 l 2.8793,-1.04414 c 0.18984,-0.06328 0.26895,-0.189844 0.26895,-0.332227 0,-0.09492 0,-0.142383 -0.0949,-0.474609 -0.91757,-2.578709 -3.38555,-4.097461 -6.73945,-4.097461 -4.27148,0 -6.99258,2.752737 -6.99258,5.616211 0,3.116598 1.83516,5.220704 6.16992,6.58125 2.65781,0.838476 3.38555,1.676954 3.38555,2.689453 0,1.123241 -0.8543,1.945899 -2.48379,1.945899 -1.77187,0 -2.78437,-0.680275 -3.29062,-1.771875 -0.11075,-0.237305 -0.30059,-0.363867 -0.49043,-0.363867 -0.0791,0 -0.15821,0.01582 -0.23731,0.04746 l -3.0375,1.154883 c -0.18984,0.06328 -0.26894,0.189844 -0.26894,0.332227 0,0.09492 0,0.142383 0.0949,0.474609 0.80683,2.65781 3.55957,4.255665 7.21406,4.255665"
         style="font-size:32.40000153px;font-variant:normal;font-weight:normal;font-stretch:normal;writing-mode:lr-tb;fill:#ffffff;fill-opacity:1;fill-rule:nonzero;stroke:none;font-family:Politics Head Bold;-inkscape-font-specification:PoliticsHead-Bold"
         id="path3326"
         inkscape:connector-curvature="0" /><path
         d="m 225.76896,-75.887466 2.26231,0 c 3.1957,0 5.53711,-1.423831 6.26484,-4.00254 0.0949,-0.332226 0.0949,-0.53789 0.0949,-0.632812 0,-0.142383 -0.0791,-0.268946 -0.26894,-0.332227 l -2.8793,-1.04414 c -0.0791,-0.03164 -0.1582,-0.04746 -0.2373,-0.04746 -0.18985,0 -0.41133,0.126562 -0.49043,0.363867 -0.37969,1.139061 -1.13907,1.661133 -2.46797,1.661133 l -2.27813,0 c -1.2498,0 -2.05664,-0.901759 -2.05664,-2.151563 l 0,-8.59043 c 0,-1.170702 0.79102,-2.151563 2.05664,-2.151563 l 2.27813,0 c 1.3289,0 2.13574,0.553712 2.46797,1.661133 0.0791,0.237305 0.30058,0.363868 0.49043,0.363868 0.0791,0 0.1582,-0.01582 0.2373,-0.04746 l 2.8793,-1.044141 c 0.18984,-0.06328 0.26894,-0.189844 0.26894,-0.332227 0,-0.09492 0,-0.142383 -0.0949,-0.474609 -0.72773,-2.578709 -3.06914,-4.160742 -6.24902,-4.160742 l -2.27813,0 c -4.30312,0 -6.48633,2.278128 -6.48633,5.711133 l 0,9.539649 c 0,3.575387 2.02501,5.711133 6.48633,5.711133"
         style="font-size:32.40000153px;font-variant:normal;font-weight:normal;font-stretch:normal;writing-mode:lr-tb;fill:#ffffff;fill-opacity:1;fill-rule:nonzero;stroke:none;font-family:Politics Head Bold;-inkscape-font-specification:PoliticsHead-Bold"
         id="path3328"
         inkscape:connector-curvature="0" /><path
         d="m 238.86818,-76.203873 3.35391,0 c 0.33222,0 0.53789,-0.205664 0.53789,-0.53789 l 0,-7.388087 c 0,-0.332226 0.20566,-0.53789 0.53789,-0.53789 l 5.77441,0 c 0.33223,0 0.53789,0.205664 0.53789,0.53789 l 0,7.388087 c 0,0.332226 0.20567,0.53789 0.53789,0.53789 l 3.35391,0 c 0.33222,0 0.53789,-0.205664 0.53789,-0.53789 l 0,-19.411525 c 0,-0.332226 -0.20567,-0.53789 -0.53789,-0.53789 l -3.35391,0 c -0.33222,0 -0.53789,0.205664 -0.53789,0.53789 l 0,6.913477 c 0,0.332226 -0.20566,0.537891 -0.53789,0.537891 l -5.77441,0 c -0.33223,0 -0.53789,-0.205665 -0.53789,-0.537891 l 0,-6.913477 c 0,-0.332226 -0.20567,-0.53789 -0.53789,-0.53789 l -3.35391,0 c -0.33223,0 -0.53789,0.205664 -0.53789,0.53789 l 0,19.411525 c 0,0.332226 0.20566,0.53789 0.53789,0.53789"
         style="font-size:32.40000153px;font-variant:normal;font-weight:normal;font-stretch:normal;writing-mode:lr-tb;fill:#ffffff;fill-opacity:1;fill-rule:nonzero;stroke:none;font-family:Politics Head Bold;-inkscape-font-specification:PoliticsHead-Bold"
         id="path3330"
         inkscape:connector-curvature="0" /></g><path
       d="m 29.897948,133.97796 231.541552,0 0,36.34242 -231.541552,0 0,-36.34242 z"
       style="fill:none;stroke:#ffffff;stroke-width:0.85758877;stroke-linecap:butt;stroke-linejoin:miter;stroke-miterlimit:4;stroke-opacity:1;stroke-dasharray:none"
       id="path104"
       inkscape:connector-curvature="0" /><g
       id="g106"
       transform="matrix(2.3627077,0,0,1.0023405,91.573515,133.80176)"><path
         d="M 0,0 0.412,-23.621 61.669,-22.552 61.257,1.069 0,0 z"
         style="fill:#1c1b18;fill-opacity:1;fill-rule:nonzero;stroke:none"
         id="path108"
         inkscape:connector-curvature="0" /></g><g
       transform="matrix(0.99984774,0.01744996,0.01744996,-0.99984774,0,64)"
       style="font-size:12px"
       id="text110"><path
         d="m 100.00967,-50.498089 1.81934,0 c 0.1582,0 0.25488,-0.0791 0.29004,-0.202149 l 1.50293,-5.572278 c 0.13184,-0.500977 0.2373,-1.133792 0.29883,-2.065434 l 0.0703,0 c 0,1.168947 0.1582,2.663093 0.39551,3.524422 l 1.13379,4.130868 c 0.0264,0.105469 0.13184,0.184571 0.28125,0.184571 l 1.91602,0 c 0.1582,0 0.26367,-0.07031 0.29004,-0.202149 l 2.3379,-10.880883 c 0.009,-0.03516 0.0352,-0.140626 0.0352,-0.166993 0,-0.08789 -0.0703,-0.131836 -0.20215,-0.131836 l -2.10059,0 c -0.0879,0 -0.1582,0.04395 -0.17578,0.131836 l -0.79102,3.73536 c -0.24609,1.177736 -0.3955,2.636726 -0.3955,3.524422 l -0.0703,0 c -0.0615,-0.861329 -0.1582,-1.53809 -0.29883,-2.065434 l -1.38867,-5.194348 c -0.0264,-0.08789 -0.0879,-0.131836 -0.21094,-0.131836 l -1.81055,0 c -0.1582,0 -0.20215,0.07031 -0.22852,0.158203 l -1.00195,3.708993 c -0.29004,1.063478 -0.49219,2.540046 -0.52735,3.524422 l -0.0703,0 c -0.0352,-0.518555 -0.14941,-1.265629 -0.29883,-2.065434 l -0.993163,-5.194348 c -0.01758,-0.08789 -0.07031,-0.131836 -0.184571,-0.131836 l -2.091802,0 c -0.131836,0 -0.202149,0.04395 -0.202149,0.131836 0,0.04395 0.09668,0.430665 0.123048,0.536134 l 2.267583,10.52932 c 0.02637,0.105469 0.131836,0.184571 0.281254,0.184571"
         style="font-size:18.00004005px;font-variant:normal;font-weight:normal;font-stretch:normal;writing-mode:lr-tb;fill:#ffffff;fill-opacity:1;fill-rule:nonzero;stroke:none;font-family:Politics Head Bold;-inkscape-font-specification:PoliticsHead-Bold"
         id="path3283"
         inkscape:connector-curvature="0" /><path
         d="m 112.7011,-62.609444 0.97559,0 c 0.34277,0 0.65039,-0.307618 0.65039,-0.650392 l 0,-0.500978 c 0,-0.351563 -0.29883,-0.650392 -0.65039,-0.650392 l -0.97559,0 c -0.37793,0 -0.65039,0.298829 -0.65039,0.650392 l 0,0.500978 c 0,0.342774 0.30762,0.650392 0.65039,0.650392 m 4.13087,0 0.97559,0 c 0.34277,0 0.65039,-0.307618 0.65039,-0.650392 l 0,-0.500978 c 0,-0.351563 -0.29883,-0.650392 -0.65039,-0.650392 l -0.97559,0 c -0.37793,0 -0.65039,0.298829 -0.65039,0.650392 l 0,0.500978 c 0,0.342774 0.30762,0.650392 0.65039,0.650392 m -2.63673,8.077166 c -0.1582,0 -0.20214,-0.07031 -0.17578,-0.18457 l 1.01954,-3.796884 0.0439,-0.360352 0.30762,0 0.044,0.360352 1.01074,3.796884 c 0.0264,0.114258 -0.0264,0.18457 -0.18457,0.18457 l -2.06544,0 m 2.73341,2.241216 c 0.13184,0 0.17578,0.01758 0.20215,0.105469 l 0.41308,1.555668 c 0.0264,0.08789 0.0879,0.131836 0.18458,0.131836 l 2.17969,0 c 0.13183,0 0.19336,-0.04395 0.19336,-0.131836 0,-0.02637 0,-0.04395 -0.0176,-0.09668 l -3.22559,-10.968774 c -0.0352,-0.123047 -0.14942,-0.184571 -0.28125,-0.184571 l -2.6631,0 c -0.13183,0 -0.24609,0.06152 -0.28125,0.184571 0,0 -3.20801,10.872094 -3.2168,10.898461 -0.0176,0.04395 -0.0352,0.123048 -0.0352,0.166993 0,0.08789 0.0703,0.131836 0.20215,0.131836 l 2.17091,0 c 0.0879,0 0.14941,-0.04395 0.17578,-0.131836 l 0.41308,-1.555668 c 0.0264,-0.08789 0.0615,-0.105469 0.20215,-0.105469 l 3.3838,0"
         style="font-size:18.00004005px;font-variant:normal;font-weight:normal;font-stretch:normal;writing-mode:lr-tb;fill:#ffffff;fill-opacity:1;fill-rule:nonzero;stroke:none;font-family:Politics Head Bold;-inkscape-font-specification:PoliticsHead-Bold"
         id="path3285"
         inkscape:connector-curvature="0" /><path
         d="m 122.17573,-50.498089 1.86329,0 c 0.18457,0 0.29883,-0.114258 0.29883,-0.298829 l 0,-4.104501 c 0,-0.18457 0.11425,-0.298829 0.29882,-0.298829 l 3.20802,0 c 0.18457,0 0.29883,0.114259 0.29883,0.298829 l 0,4.104501 c 0,0.184571 0.11426,0.298829 0.29883,0.298829 l 1.86328,0 c 0.18457,0 0.29883,-0.114258 0.29883,-0.298829 l 0,-10.784203 c 0,-0.184571 -0.11426,-0.298829 -0.29883,-0.298829 l -1.86328,0 c -0.18457,0 -0.29883,0.114258 -0.29883,0.298829 l 0,3.840829 c 0,0.18457 -0.11426,0.298828 -0.29883,0.298828 l -3.20802,0 c -0.18457,0 -0.29882,-0.114258 -0.29882,-0.298828 l 0,-3.840829 c 0,-0.184571 -0.11426,-0.298829 -0.29883,-0.298829 l -1.86329,0 c -0.18457,0 -0.29883,0.114258 -0.29883,0.298829 l 0,10.784203 c 0,0.184571 0.11426,0.298829 0.29883,0.298829"
         style="font-size:18.00004005px;font-variant:normal;font-weight:normal;font-stretch:normal;writing-mode:lr-tb;fill:#ffffff;fill-opacity:1;fill-rule:nonzero;stroke:none;font-family:Politics Head Bold;-inkscape-font-specification:PoliticsHead-Bold"
         id="path3287"
         inkscape:connector-curvature="0" /><path
         d="m 133.707,-50.498089 6.54787,0 c 0.18457,0 0.29883,-0.114258 0.29883,-0.298829 l 0,-1.643558 c 0,-0.184571 -0.11426,-0.298829 -0.29883,-0.298829 l -4.08692,0 c -0.18457,0 -0.29883,-0.114258 -0.29883,-0.298829 l 0,-8.542987 c 0,-0.184571 -0.11426,-0.298829 -0.29883,-0.298829 l -1.86329,0 c -0.18457,0 -0.29882,0.114258 -0.29882,0.298829 l 0,10.784203 c 0,0.184571 0.11425,0.298829 0.29882,0.298829"
         style="font-size:18.00004005px;font-variant:normal;font-weight:normal;font-stretch:normal;writing-mode:lr-tb;fill:#ffffff;fill-opacity:1;fill-rule:nonzero;stroke:none;font-family:Politics Head Bold;-inkscape-font-specification:PoliticsHead-Bold"
         id="path3289"
         inkscape:connector-curvature="0" /><path
         d="m 149.93165,-50.498089 c 0.18457,0 0.29883,-0.114258 0.29883,-0.298829 l 0,-1.643558 c 0,-0.184571 -0.11426,-0.298829 -0.29883,-0.298829 l -4.41212,0 c -0.18457,0 -0.29883,-0.114258 -0.29883,-0.298829 l 0,-1.731449 c 0,-0.18457 0.11426,-0.298829 0.29883,-0.298829 l 3.6211,0 c 0.18458,0 0.29883,-0.114258 0.29883,-0.298828 l 0,-1.643559 c 0,-0.18457 -0.11425,-0.298828 -0.29883,-0.298828 l -3.6211,0 c -0.18457,0 -0.29883,-0.114259 -0.29883,-0.298829 l 0,-1.643559 c 0,-0.18457 0.11426,-0.298828 0.29883,-0.298828 l 4.41212,0 c 0.18457,0 0.29883,-0.114259 0.29883,-0.298829 l 0,-1.643558 c 0,-0.184571 -0.11426,-0.298829 -0.29883,-0.298829 l -6.87306,0 c -0.18457,0 -0.29883,0.114258 -0.29883,0.298829 l 0,10.696312 c 0,0.184571 0.11426,0.298829 0.29883,0.298829 l 6.87306,0"
         style="font-size:18.00004005px;font-variant:normal;font-weight:normal;font-stretch:normal;writing-mode:lr-tb;fill:#ffffff;fill-opacity:1;fill-rule:nonzero;stroke:none;font-family:Politics Head Bold;-inkscape-font-specification:PoliticsHead-Bold"
         id="path3291"
         inkscape:connector-curvature="0" /><path
         d="m 153.00783,-50.498089 1.86329,0 c 0.18457,0 0.29883,-0.114258 0.29883,-0.298829 l 0,-3.594734 c 0,-1.151369 -0.12305,-2.373053 -0.26368,-2.87403 l 0.0703,0 c 0,0.03516 0.1582,0.395509 0.36914,0.773439 l 3.55079,5.853529 c 0.0703,0.105469 0.14941,0.140625 0.26367,0.140625 l 1.70508,0 c 0.18457,0 0.29883,-0.114258 0.29883,-0.298829 l 0,-10.784203 c 0,-0.184571 -0.11426,-0.298829 -0.29883,-0.298829 l -1.86328,0 c -0.18458,0 -0.29883,0.114258 -0.29883,0.298829 l 0,3.612312 c 0,0.993166 0.14941,2.40821 0.34277,3.251961 l -0.0703,0 c -0.0352,-0.114258 -0.27246,-0.606447 -0.4834,-0.95801 l -3.50684,-6.082045 c -0.0527,-0.0791 -0.14063,-0.123047 -0.25489,-0.123047 l -1.72266,0 c -0.18457,0 -0.29883,0.114258 -0.29883,0.298829 l 0,10.784203 c 0,0.184571 0.11426,0.298829 0.29883,0.298829"
         style="font-size:18.00004005px;font-variant:normal;font-weight:normal;font-stretch:normal;writing-mode:lr-tb;fill:#ffffff;fill-opacity:1;fill-rule:nonzero;stroke:none;font-family:Politics Head Bold;-inkscape-font-specification:PoliticsHead-Bold"
         id="path3293"
         inkscape:connector-curvature="0" /><path
         d="m 167.56255,-50.498089 1.86328,0 c 0.18458,0 0.29883,-0.114258 0.29883,-0.298829 l 0,-3.34864 0.73829,-0.922854 c 0.0351,-0.04395 0.0967,-0.08789 0.14062,-0.08789 0.0703,0 0.13184,0.06152 0.15821,0.105469 l 2.76856,4.368173 c 0.0791,0.123047 0.19336,0.184571 0.3164,0.184571 l 2.1797,0 c 0.18457,0 0.29882,-0.114258 0.29882,-0.307618 0,-0.07031 -0.0176,-0.123047 -0.0527,-0.175781 l -4.08692,-5.994154 c -0.0352,-0.05273 -0.0527,-0.07031 -0.0527,-0.09668 0,-0.02637 0.009,-0.04395 0.0527,-0.09668 l 3.42774,-4.201181 c 0.0439,-0.04395 0.0703,-0.131837 0.0703,-0.210938 0,-0.184571 -0.11426,-0.298829 -0.29883,-0.298829 l -2.02149,0 c -0.0967,0 -0.17578,0.03516 -0.2373,0.114258 l -3.542,4.50001 c 0.0879,-0.307618 0.14062,-0.77344 0.14062,-1.221682 l 0,-3.093757 c 0,-0.184571 -0.11425,-0.298829 -0.29883,-0.298829 l -1.86328,0 c -0.18457,0 -0.29883,0.114258 -0.29883,0.298829 l 0,10.784203 c 0,0.184571 0.11426,0.298829 0.29883,0.298829"
         style="font-size:18.00004005px;font-variant:normal;font-weight:normal;font-stretch:normal;writing-mode:lr-tb;fill:#ffffff;fill-opacity:1;fill-rule:nonzero;stroke:none;font-family:Politics Head Bold;-inkscape-font-specification:PoliticsHead-Bold"
         id="path3295"
         inkscape:connector-curvature="0" /><path
         d="m 179.3575,-62.609444 0.97558,0 c 0.34278,0 0.6504,-0.307618 0.6504,-0.650392 l 0,-0.500978 c 0,-0.351563 -0.29883,-0.650392 -0.6504,-0.650392 l -0.97558,0 c -0.37793,0 -0.6504,0.298829 -0.6504,0.650392 l 0,0.500978 c 0,0.342774 0.30762,0.650392 0.6504,0.650392 m 4.13087,0 0.97558,0 c 0.34278,0 0.6504,-0.307618 0.6504,-0.650392 l 0,-0.500978 c 0,-0.351563 -0.29883,-0.650392 -0.6504,-0.650392 l -0.97558,0 c -0.37794,0 -0.6504,0.298829 -0.6504,0.650392 l 0,0.500978 c 0,0.342774 0.30762,0.650392 0.6504,0.650392 m -0.71192,12.287137 c 2.39063,0 3.60352,-1.26563 3.60352,-3.172859 l 0,-5.299816 c 0,-1.986331 -1.125,-3.172859 -3.60352,-3.172859 l -1.25684,0 c -2.39063,0 -3.60352,1.274419 -3.60352,3.172859 l 0,5.299816 c 0,1.986331 1.125,3.172859 3.60352,3.172859 l 1.25684,0 m 0,-2.241216 -1.25684,0 c -0.69434,0 -1.14258,-0.500978 -1.14258,-1.195315 l 0,-4.772472 c 0,-0.650391 0.43945,-1.195315 1.14258,-1.195315 l 1.25684,0 c 0.69434,0 1.14258,0.500978 1.14258,1.195315 l 0,4.772472 c 0,0.65918 -0.43945,1.195315 -1.14258,1.195315"
         style="font-size:18.00004005px;font-variant:normal;font-weight:normal;font-stretch:normal;writing-mode:lr-tb;fill:#ffffff;fill-opacity:1;fill-rule:nonzero;stroke:none;font-family:Politics Head Bold;-inkscape-font-specification:PoliticsHead-Bold"
         id="path3297"
         inkscape:connector-curvature="0" /><path
         d="m 189.32431,-50.498089 1.86329,0 c 0.18457,0 0.29883,-0.114258 0.29883,-0.298829 l 0,-3.594734 c 0,-1.151369 -0.12305,-2.373053 -0.26367,-2.87403 l 0.0703,0 c 0,0.03516 0.1582,0.395509 0.36914,0.773439 l 3.55079,5.853529 c 0.0703,0.105469 0.14941,0.140625 0.26367,0.140625 l 1.70508,0 c 0.18457,0 0.29883,-0.114258 0.29883,-0.298829 l 0,-10.784203 c 0,-0.184571 -0.11426,-0.298829 -0.29883,-0.298829 l -1.86328,0 c -0.18457,0 -0.29883,0.114258 -0.29883,0.298829 l 0,3.612312 c 0,0.993166 0.14941,2.40821 0.34277,3.251961 l -0.0703,0 c -0.0352,-0.114258 -0.27246,-0.606447 -0.4834,-0.95801 l -3.50684,-6.082045 c -0.0527,-0.0791 -0.14063,-0.123047 -0.25489,-0.123047 l -1.72266,0 c -0.18457,0 -0.29882,0.114258 -0.29882,0.298829 l 0,10.784203 c 0,0.184571 0.11425,0.298829 0.29882,0.298829"
         style="font-size:18.00004005px;font-variant:normal;font-weight:normal;font-stretch:normal;writing-mode:lr-tb;fill:#ffffff;fill-opacity:1;fill-rule:nonzero;stroke:none;font-family:Politics Head Bold;-inkscape-font-specification:PoliticsHead-Bold"
         id="path3299"
         inkscape:connector-curvature="0" /><path
         d="m 200.6095,-50.498089 1.86329,0 c 0.18457,0 0.29883,-0.114258 0.29883,-0.298829 l 0,-3.594734 c 0,-1.151369 -0.12305,-2.373053 -0.26368,-2.87403 l 0.0703,0 c 0,0.03516 0.1582,0.395509 0.36914,0.773439 l 3.55079,5.853529 c 0.0703,0.105469 0.14941,0.140625 0.26367,0.140625 l 1.70508,0 c 0.18457,0 0.29883,-0.114258 0.29883,-0.298829 l 0,-10.784203 c 0,-0.184571 -0.11426,-0.298829 -0.29883,-0.298829 l -1.86329,0 c -0.18457,0 -0.29882,0.114258 -0.29882,0.298829 l 0,3.612312 c 0,0.993166 0.14941,2.40821 0.34277,3.251961 l -0.0703,0 c -0.0352,-0.114258 -0.27246,-0.606447 -0.4834,-0.95801 l -3.50685,-6.082045 c -0.0527,-0.0791 -0.14062,-0.123047 -0.25488,-0.123047 l -1.72266,0 c -0.18457,0 -0.29883,0.114258 -0.29883,0.298829 l 0,10.784203 c 0,0.184571 0.11426,0.298829 0.29883,0.298829"
         style="font-size:18.00004005px;font-variant:normal;font-weight:normal;font-stretch:normal;writing-mode:lr-tb;fill:#ffffff;fill-opacity:1;fill-rule:nonzero;stroke:none;font-family:Politics Head Bold;-inkscape-font-specification:PoliticsHead-Bold"
         id="path3301"
         inkscape:connector-curvature="0" /><path
         d="m 218.76774,-50.498089 c 0.18457,0 0.29883,-0.114258 0.29883,-0.298829 l 0,-1.643558 c 0,-0.184571 -0.11426,-0.298829 -0.29883,-0.298829 l -4.41212,0 c -0.18457,0 -0.29883,-0.114258 -0.29883,-0.298829 l 0,-1.731449 c 0,-0.18457 0.11426,-0.298829 0.29883,-0.298829 l 3.6211,0 c 0.18458,0 0.29883,-0.114258 0.29883,-0.298828 l 0,-1.643559 c 0,-0.18457 -0.11425,-0.298828 -0.29883,-0.298828 l -3.6211,0 c -0.18457,0 -0.29883,-0.114259 -0.29883,-0.298829 l 0,-1.643559 c 0,-0.18457 0.11426,-0.298828 0.29883,-0.298828 l 4.41212,0 c 0.18457,0 0.29883,-0.114259 0.29883,-0.298829 l 0,-1.643558 c 0,-0.184571 -0.11426,-0.298829 -0.29883,-0.298829 l -6.87306,0 c -0.18457,0 -0.29883,0.114258 -0.29883,0.298829 l 0,10.696312 c 0,0.184571 0.11426,0.298829 0.29883,0.298829 l 6.87306,0"
         style="font-size:18.00004005px;font-variant:normal;font-weight:normal;font-stretch:normal;writing-mode:lr-tb;fill:#ffffff;fill-opacity:1;fill-rule:nonzero;stroke:none;font-family:Politics Head Bold;-inkscape-font-specification:PoliticsHead-Bold"
         id="path3303"
         inkscape:connector-curvature="0" /><path
         d="m 221.84392,-50.498089 1.86329,0 c 0.18457,0 0.29883,-0.114258 0.29883,-0.298829 l 0,-3.594734 c 0,-1.151369 -0.12305,-2.373053 -0.26368,-2.87403 l 0.0703,0 c 0,0.03516 0.1582,0.395509 0.36914,0.773439 l 3.55079,5.853529 c 0.0703,0.105469 0.14941,0.140625 0.26367,0.140625 l 1.70508,0 c 0.18457,0 0.29883,-0.114258 0.29883,-0.298829 l 0,-10.784203 c 0,-0.184571 -0.11426,-0.298829 -0.29883,-0.298829 l -1.86328,0 c -0.18457,0 -0.29883,0.114258 -0.29883,0.298829 l 0,3.612312 c 0,0.993166 0.14941,2.40821 0.34277,3.251961 l -0.0703,0 c -0.0352,-0.114258 -0.27246,-0.606447 -0.4834,-0.95801 l -3.50684,-6.082045 c -0.0527,-0.0791 -0.14063,-0.123047 -0.25489,-0.123047 l -1.72266,0 c -0.18457,0 -0.29883,0.114258 -0.29883,0.298829 l 0,10.784203 c 0,0.184571 0.11426,0.298829 0.29883,0.298829"
         style="font-size:18.00004005px;font-variant:normal;font-weight:normal;font-stretch:normal;writing-mode:lr-tb;fill:#ffffff;fill-opacity:1;fill-rule:nonzero;stroke:none;font-family:Politics Head Bold;-inkscape-font-specification:PoliticsHead-Bold"
         id="path3305"
         inkscape:connector-curvature="0" /></g><g
       id="g114"
       transform="translate(0,64)"><g
         id="g116"
         clip-path="url(#clipPath118)"><g
           id="g122"
           transform="matrix(2.7801633,0,0,1,91.653846,69.775371)"><path
             d="M -0.02889426,0.02639221 0.32124189,-23.649894 52.3802,-22.578393 52.030064,1.0978943 -0.02889426,0.02639221 z"
             style="fill:none;stroke:#ffffff;stroke-width:0.69221145;stroke-linecap:butt;stroke-linejoin:miter;stroke-miterlimit:4;stroke-opacity:1;stroke-dasharray:none"
             id="path124"
             inkscape:connector-curvature="0" /></g><path
           d="m 40.174153,24.207171 221.249997,0 0,23.625 -221.249997,0 0,-23.625 z"
           style="fill:#f39315;fill-opacity:1;fill-rule:nonzero;stroke:none"
           id="path126"
           inkscape:connector-curvature="0" /></g></g><g
       transform="matrix(1,0,0,-1,0,64)"
       id="text128"><path
         d="m 47.765423,-29.978989 c 2.513669,0 3.981445,-1.353517 3.981445,-3.46289 0,-1.538085 -1.072268,-2.715821 -3.410156,-3.506836 -1.441405,-0.492187 -1.898438,-0.861329 -1.898438,-1.423828 0,-0.580078 0.4834,-1.045899 1.335938,-1.045899 0.764648,0 1.335938,0.351563 1.599609,0.922852 0.06152,0.131836 0.166993,0.202148 0.272461,0.202148 0.04395,0 0.08789,-0.0088 0.131836,-0.02637 l 1.59961,-0.580078 c 0.105468,-0.03516 0.149414,-0.105469 0.149414,-0.18457 0,-0.05273 0,-0.0791 -0.05273,-0.263672 -0.509765,-1.432616 -1.880861,-2.276367 -3.74414,-2.276367 -2.373045,0 -3.884766,1.529298 -3.884766,3.120117 0,1.731443 1.019534,2.900391 3.427734,3.65625 1.476561,0.46582 1.88086,0.931641 1.88086,1.49414 0,0.624023 -0.474611,1.081055 -1.379883,1.081055 -0.984374,0 -1.546875,-0.37793 -1.828125,-0.984375 -0.06152,-0.131836 -0.166992,-0.202148 -0.272461,-0.202148 -0.04395,0 -0.08789,0.0088 -0.131836,0.02637 l -1.6875,0.641601 c -0.105469,0.03516 -0.149414,0.105469 -0.149414,0.184571 0,0.05273 0,0.0791 0.05273,0.263672 0.448242,1.476561 1.977541,2.364257 4.007813,2.364257"
         style="font-size:18px;font-variant:normal;font-weight:normal;font-stretch:normal;writing-mode:lr-tb;fill:#ffffff;fill-opacity:1;fill-rule:nonzero;stroke:none;font-family:Politics Head Bold;-inkscape-font-specification:PoliticsHead-Bold"
         id="path3240"
         inkscape:connector-curvature="0" /><path
         d="m 57.285736,-29.978989 1.256836,0 c 1.775389,0 3.076172,-0.791017 3.480469,-2.223632 0.05273,-0.184571 0.05273,-0.298829 0.05273,-0.351563 0,-0.0791 -0.04395,-0.149414 -0.149414,-0.18457 l -1.599609,-0.580078 c -0.04395,-0.01758 -0.08789,-0.02637 -0.131836,-0.02637 -0.105469,0 -0.228516,0.07031 -0.272461,0.202149 -0.210937,0.632812 -0.632813,0.922851 -1.371094,0.922851 l -1.265625,0 c -0.694335,0 -1.142578,-0.500977 -1.142578,-1.195312 l 0,-4.772461 c 0,-0.65039 0.439454,-1.195313 1.142578,-1.195313 l 1.265625,0 c 0.738281,0 1.186524,0.307618 1.371094,0.922852 0.04395,0.131836 0.166992,0.202148 0.272461,0.202148 0.04395,0 0.08789,-0.0088 0.131836,-0.02637 l 1.599609,-0.580078 c 0.105469,-0.03516 0.149414,-0.105469 0.149414,-0.18457 0,-0.05273 0,-0.0791 -0.05273,-0.263672 -0.404297,-1.432616 -1.70508,-2.311523 -3.47168,-2.311523 l -1.265625,0 c -2.390623,0 -3.603516,1.265626 -3.603516,3.172851 l 0,5.299805 c 0,1.986326 1.125003,3.172851 3.603516,3.172851"
         style="font-size:18px;font-variant:normal;font-weight:normal;font-stretch:normal;writing-mode:lr-tb;fill:#ffffff;fill-opacity:1;fill-rule:nonzero;stroke:none;font-family:Politics Head Bold;-inkscape-font-specification:PoliticsHead-Bold"
         id="path3242"
         inkscape:connector-curvature="0" /><path
         d="m 64.578827,-30.15477 1.863281,0 c 0.18457,0 0.298828,-0.114258 0.298828,-0.298828 l 0,-4.104492 c 0,-0.18457 0.114258,-0.298828 0.298828,-0.298828 l 3.208008,0 c 0.18457,0 0.298828,0.114258 0.298828,0.298828 l 0,4.104492 c 0,0.18457 0.114258,0.298828 0.298828,0.298828 l 1.863282,0 c 0.18457,0 0.298828,-0.114258 0.298828,-0.298828 l 0,-10.78418 c 0,-0.18457 -0.114258,-0.298828 -0.298828,-0.298828 l -1.863282,0 c -0.18457,0 -0.298828,0.114258 -0.298828,0.298828 l 0,3.840821 c 0,0.18457 -0.114258,0.298828 -0.298828,0.298828 l -3.208008,0 c -0.18457,0 -0.298828,-0.114258 -0.298828,-0.298828 l 0,-3.840821 c 0,-0.18457 -0.114258,-0.298828 -0.298828,-0.298828 l -1.863281,0 c -0.18457,0 -0.298828,0.114258 -0.298828,0.298828 l 0,10.78418 c 0,0.18457 0.114258,0.298828 0.298828,0.298828"
         style="font-size:18px;font-variant:normal;font-weight:normal;font-stretch:normal;writing-mode:lr-tb;fill:#ffffff;fill-opacity:1;fill-rule:nonzero;stroke:none;font-family:Politics Head Bold;-inkscape-font-specification:PoliticsHead-Bold"
         id="path3244"
         inkscape:connector-curvature="0" /><path
         d="m 78.577766,-34.18895 c -0.158203,0 -0.202148,-0.07031 -0.175781,-0.18457 l 1.019531,-3.796875 0.04395,-0.360351 0.307617,0 0.04395,0.360351 1.010742,3.796875 c 0.02637,0.114258 -0.02637,0.18457 -0.18457,0.18457 l -2.06543,0 m 2.733399,2.241211 c 0.131836,0 0.175781,0.01758 0.202148,0.105469 l 0.413086,1.555664 c 0.02637,0.08789 0.08789,0.131836 0.184571,0.131836 l 2.179687,0 c 0.131836,0 0.193359,-0.04395 0.193359,-0.131836 0,-0.02637 0,-0.04395 -0.01758,-0.09668 l -3.225586,-10.96875 c -0.03516,-0.123046 -0.149414,-0.18457 -0.28125,-0.18457 l -2.663086,0 c -0.131835,0 -0.246093,0.06152 -0.28125,0.18457 0,0 -3.208007,10.872071 -3.216796,10.898438 -0.01758,0.04395 -0.03516,0.123047 -0.03516,0.166992 0,0.08789 0.07031,0.131836 0.202149,0.131836 l 2.170898,0 c 0.08789,0 0.149414,-0.04395 0.175781,-0.131836 l 0.413086,-1.555664 c 0.02637,-0.08789 0.06152,-0.105469 0.202149,-0.105469 l 3.383789,0"
         style="font-size:18px;font-variant:normal;font-weight:normal;font-stretch:normal;writing-mode:lr-tb;fill:#ffffff;fill-opacity:1;fill-rule:nonzero;stroke:none;font-family:Politics Head Bold;-inkscape-font-specification:PoliticsHead-Bold"
         id="path3246"
         inkscape:connector-curvature="0" /><path
         d="m 86.538834,-30.15477 1.863281,0 c 0.18457,0 0.298828,-0.114258 0.298828,-0.298828 l 0,-3.568359 c 0,-0.184571 0.114258,-0.298829 0.307617,-0.298829 l 3.612305,0 c 0.18457,0 0.298828,-0.114258 0.298828,-0.298828 l 0,-1.643554 c 0,-0.18457 -0.114258,-0.298828 -0.298828,-0.298828 l -3.621094,0 c -0.18457,0 -0.298828,-0.114258 -0.298828,-0.298829 l 0,-2.047851 c 0,-0.18457 0.114258,-0.298828 0.298828,-0.298828 l 4.412109,0 c 0.184571,0 0.298829,-0.114258 0.298829,-0.298828 l 0,-1.643555 c 0,-0.18457 -0.114258,-0.298828 -0.298829,-0.298828 l -6.873046,0 c -0.184571,0 -0.298829,0.114258 -0.298829,0.298828 l 0,10.696289 c 0,0.18457 0.114258,0.298828 0.298829,0.298828"
         style="font-size:18px;font-variant:normal;font-weight:normal;font-stretch:normal;writing-mode:lr-tb;fill:#ffffff;fill-opacity:1;fill-rule:nonzero;stroke:none;font-family:Politics Head Bold;-inkscape-font-specification:PoliticsHead-Bold"
         id="path3248"
         inkscape:connector-curvature="0" /><path
         d="m 96.204834,-30.15477 1.863281,0 c 0.18457,0 0.298828,-0.114258 0.298828,-0.298828 l 0,-3.568359 c 0,-0.184571 0.114258,-0.298829 0.307618,-0.298829 l 3.612309,0 c 0.18457,0 0.29882,-0.114258 0.29882,-0.298828 l 0,-1.643554 c 0,-0.18457 -0.11425,-0.298828 -0.29882,-0.298828 l -3.621099,0 c -0.18457,0 -0.298828,-0.114258 -0.298828,-0.298829 l 0,-2.047851 c 0,-0.18457 0.114258,-0.298828 0.298828,-0.298828 l 4.412109,0 c 0.18457,0 0.29883,-0.114258 0.29883,-0.298828 l 0,-1.643555 c 0,-0.18457 -0.11426,-0.298828 -0.29883,-0.298828 l -6.873046,0 c -0.18457,0 -0.298828,0.114258 -0.298828,0.298828 l 0,10.696289 c 0,0.18457 0.114258,0.298828 0.298828,0.298828"
         style="font-size:18px;font-variant:normal;font-weight:normal;font-stretch:normal;writing-mode:lr-tb;fill:#ffffff;fill-opacity:1;fill-rule:nonzero;stroke:none;font-family:Politics Head Bold;-inkscape-font-specification:PoliticsHead-Bold"
         id="path3250"
         inkscape:connector-curvature="0" /><path
         d="m 107.82201,-30.15477 1.86328,0 c 0.18457,0 0.29883,-0.114258 0.29883,-0.298828 l 0,-8.455078 c 0,-0.18457 0.11425,-0.298828 0.29882,-0.298828 l 1.96875,0 c 0.18457,0 0.29883,-0.114258 0.29883,-0.298828 l 0,-1.643555 c 0,-0.18457 -0.11426,-0.298828 -0.29883,-0.298828 l -6.99609,0 c -0.18457,0 -0.29883,0.114258 -0.29883,0.298828 l 0,1.643555 c 0,0.18457 0.11426,0.298828 0.29883,0.298828 l 1.96875,0 c 0.18457,0 0.29883,0.114258 0.29883,0.298828 l 0,8.455078 c 0,0.18457 0.11426,0.298828 0.29883,0.298828"
         style="font-size:18px;font-variant:normal;font-weight:normal;font-stretch:normal;writing-mode:lr-tb;fill:#ffffff;fill-opacity:1;fill-rule:nonzero;stroke:none;font-family:Politics Head Bold;-inkscape-font-specification:PoliticsHead-Bold"
         id="path3252"
         inkscape:connector-curvature="0" /><path
         d="m 118.30883,-30.15477 1.85449,0 c 0.18457,0 0.29883,-0.114258 0.29883,-0.298828 l 0,-3.014648 c 0,-1.661132 -0.24609,-3.515626 -0.24609,-3.612305 l 0.0439,0 c 0.0264,0.04395 0.41309,1.379883 0.66797,2.012695 l 1.34473,3.295899 c 0.0439,0.114257 0.14941,0.166992 0.30761,0.166992 l 1.38868,0 c 0.12304,0 0.22851,-0.05273 0.27246,-0.158203 l 1.39746,-3.260743 c 0.25488,-0.632811 0.62402,-1.933593 0.62402,-1.977539 l 0.0703,0 c 0,0.09668 -0.22851,1.942385 -0.22851,3.550782 l 0,2.99707 c 0,0.18457 0.11426,0.298828 0.29883,0.298828 l 1.81933,0 c 0.18457,0 0.29883,-0.114258 0.29883,-0.298828 l 0,-10.78418 c 0,-0.18457 -0.11426,-0.298828 -0.29883,-0.298828 l -1.98633,0 c -0.13183,0 -0.2373,0.06152 -0.27246,0.158203 l -2.4082,5.660157 c -0.11426,0.298827 -0.21094,0.676757 -0.21094,0.694335 l -0.0879,0 c 0,-0.01758 -0.0791,-0.36914 -0.21094,-0.694335 l -2.46972,-5.660157 c -0.0439,-0.09668 -0.14063,-0.158203 -0.27246,-0.158203 l -1.99512,0 c -0.18457,0 -0.29883,0.114258 -0.29883,0.298828 l 0,10.78418 c 0,0.18457 0.11426,0.298828 0.29883,0.298828"
         style="font-size:18px;font-variant:normal;font-weight:normal;font-stretch:normal;writing-mode:lr-tb;fill:#ffffff;fill-opacity:1;fill-rule:nonzero;stroke:none;font-family:Politics Head Bold;-inkscape-font-specification:PoliticsHead-Bold"
         id="path3254"
         inkscape:connector-curvature="0" /><path
         d="m 138.50188,-30.15477 c 0.18457,0 0.29882,-0.114258 0.29882,-0.298828 l 0,-1.643555 c 0,-0.18457 -0.11425,-0.298828 -0.29882,-0.298828 l -4.41211,0 c -0.18457,0 -0.29883,-0.114258 -0.29883,-0.298828 l 0,-1.731445 c 0,-0.18457 0.11426,-0.298828 0.29883,-0.298828 l 3.62109,0 c 0.18457,0 0.29883,-0.114258 0.29883,-0.298829 l 0,-1.643554 c 0,-0.18457 -0.11426,-0.298828 -0.29883,-0.298828 l -3.62109,0 c -0.18457,0 -0.29883,-0.114258 -0.29883,-0.298828 l 0,-1.643555 c 0,-0.18457 0.11426,-0.298828 0.29883,-0.298828 l 4.41211,0 c 0.18457,0 0.29882,-0.114258 0.29882,-0.298828 l 0,-1.643555 c 0,-0.18457 -0.11425,-0.298828 -0.29882,-0.298828 l -6.87305,0 c -0.18457,0 -0.29883,0.114258 -0.29883,0.298828 l 0,10.696289 c 0,0.18457 0.11426,0.298828 0.29883,0.298828 l 6.87305,0"
         style="font-size:18px;font-variant:normal;font-weight:normal;font-stretch:normal;writing-mode:lr-tb;fill:#ffffff;fill-opacity:1;fill-rule:nonzero;stroke:none;font-family:Politics Head Bold;-inkscape-font-specification:PoliticsHead-Bold"
         id="path3256"
         inkscape:connector-curvature="0" /><path
         d="m 141.56483,-30.15477 1.86329,0 c 0.18457,0 0.29882,-0.114258 0.29882,-0.298828 l 0,-4.104492 c 0,-0.18457 0.11426,-0.298828 0.29883,-0.298828 l 3.20801,0 c 0.18457,0 0.29883,0.114258 0.29883,0.298828 l 0,4.104492 c 0,0.18457 0.11426,0.298828 0.29883,0.298828 l 1.86328,0 c 0.18457,0 0.29883,-0.114258 0.29883,-0.298828 l 0,-10.78418 c 0,-0.18457 -0.11426,-0.298828 -0.29883,-0.298828 l -1.86328,0 c -0.18457,0 -0.29883,0.114258 -0.29883,0.298828 l 0,3.840821 c 0,0.18457 -0.11426,0.298828 -0.29883,0.298828 l -3.20801,0 c -0.18457,0 -0.29883,-0.114258 -0.29883,-0.298828 l 0,-3.840821 c 0,-0.18457 -0.11425,-0.298828 -0.29882,-0.298828 l -1.86329,0 c -0.18457,0 -0.29882,0.114258 -0.29882,0.298828 l 0,10.78418 c 0,0.18457 0.11425,0.298828 0.29882,0.298828"
         style="font-size:18px;font-variant:normal;font-weight:normal;font-stretch:normal;writing-mode:lr-tb;fill:#ffffff;fill-opacity:1;fill-rule:nonzero;stroke:none;font-family:Politics Head Bold;-inkscape-font-specification:PoliticsHead-Bold"
         id="path3258"
         inkscape:connector-curvature="0" /><path
         d="m 157.66435,-36.711411 -2.10058,0 c -0.18457,0 -0.29883,-0.114258 -0.29883,-0.298828 l 0,-1.898437 c 0,-0.18457 0.11426,-0.298828 0.29883,-0.298828 l 2.10058,0 c 0.69434,0 1.23047,0.465821 1.23047,1.089843 l 0,0.307618 c 0,0.624022 -0.55371,1.098632 -1.23047,1.098632 m -4.56152,6.556641 1.86328,0 c 0.18457,0 0.29883,-0.114258 0.29883,-0.298828 l 0,-3.796875 c 0,-0.18457 0.11426,-0.298828 0.29883,-0.298828 l 1.5205,0 c 0.0791,0 0.14942,0.03516 0.18457,0.123047 l 1.71387,4.130859 c 0.0439,0.09668 0.10547,0.140625 0.17578,0.140625 l 2.12696,0 c 0.14062,0 0.21093,-0.07031 0.21093,-0.140625 0,-0.07031 -0.0351,-0.18457 -0.11425,-0.369141 l -1.72266,-4.192382 c -0.0264,-0.07031 -0.0439,-0.123047 -0.0439,-0.19336 0,-0.07031 0.0439,-0.123047 0.13184,-0.175781 1.01074,-0.615234 1.48535,-1.529298 1.48535,-2.750977 0,-2.126951 -1.34473,-3.471679 -3.59472,-3.471679 l -4.53516,0 c -0.18457,0 -0.29883,0.114258 -0.29883,0.298828 l 0,10.696289 c 0,0.18457 0.11426,0.298828 0.29883,0.298828"
         style="font-size:18px;font-variant:normal;font-weight:normal;font-stretch:normal;writing-mode:lr-tb;fill:#ffffff;fill-opacity:1;fill-rule:nonzero;stroke:none;font-family:Politics Head Bold;-inkscape-font-specification:PoliticsHead-Bold"
         id="path3260"
         inkscape:connector-curvature="0" /><path
         d="m 170.12941,-29.978989 c 2.51367,0 3.98145,-1.353517 3.98145,-3.46289 0,-1.538085 -1.07227,-2.715821 -3.41016,-3.506836 -1.44141,-0.492187 -1.89844,-0.861329 -1.89844,-1.423828 0,-0.580078 0.4834,-1.045899 1.33594,-1.045899 0.76465,0 1.33594,0.351563 1.59961,0.922852 0.0615,0.131836 0.16699,0.202148 0.27246,0.202148 0.0439,0 0.0879,-0.0088 0.13184,-0.02637 l 1.5996,-0.580078 c 0.10547,-0.03516 0.14942,-0.105469 0.14942,-0.18457 0,-0.05273 0,-0.0791 -0.0527,-0.263672 -0.50976,-1.432616 -1.88086,-2.276367 -3.74414,-2.276367 -2.37304,0 -3.88476,1.529298 -3.88476,3.120117 0,1.731443 1.01953,2.900391 3.42773,3.65625 1.47656,0.46582 1.88086,0.931641 1.88086,1.49414 0,0.624023 -0.47461,1.081055 -1.37988,1.081055 -0.98438,0 -1.54688,-0.37793 -1.82813,-0.984375 -0.0615,-0.131836 -0.16699,-0.202148 -0.27246,-0.202148 -0.0439,0 -0.0879,0.0088 -0.13183,0.02637 l -1.6875,0.641601 c -0.10547,0.03516 -0.14942,0.105469 -0.14942,0.184571 0,0.05273 0,0.0791 0.0527,0.263672 0.44824,1.476561 1.97754,2.364257 4.00781,2.364257"
         style="font-size:18px;font-variant:normal;font-weight:normal;font-stretch:normal;writing-mode:lr-tb;fill:#ffffff;fill-opacity:1;fill-rule:nonzero;stroke:none;font-family:Politics Head Bold;-inkscape-font-specification:PoliticsHead-Bold"
         id="path3262"
         inkscape:connector-curvature="0" /><path
         d="m 176.52081,-30.15477 1.86328,0 c 0.18457,0 0.29883,-0.114258 0.29883,-0.298828 l 0,-10.78418 c 0,-0.18457 -0.11426,-0.298828 -0.29883,-0.298828 l -1.86328,0 c -0.18457,0 -0.29883,0.114258 -0.29883,0.298828 l 0,10.78418 c 0,0.18457 0.11426,0.298828 0.29883,0.298828"
         style="font-size:18px;font-variant:normal;font-weight:normal;font-stretch:normal;writing-mode:lr-tb;fill:#ffffff;fill-opacity:1;fill-rule:nonzero;stroke:none;font-family:Politics Head Bold;-inkscape-font-specification:PoliticsHead-Bold"
         id="path3264"
         inkscape:connector-curvature="0" /><path
         d="m 184.92372,-29.978989 1.25684,0 c 1.77539,0 3.07617,-0.791017 3.48047,-2.223632 0.0527,-0.184571 0.0527,-0.298829 0.0527,-0.351563 0,-0.0791 -0.0439,-0.149414 -0.14941,-0.18457 l -1.59961,-0.580078 c -0.0439,-0.01758 -0.0879,-0.02637 -0.13184,-0.02637 -0.10547,0 -0.22851,0.07031 -0.27246,0.202149 -0.21094,0.632812 -0.63281,0.922851 -1.37109,0.922851 l -1.26563,0 c -0.69433,0 -1.14258,-0.500977 -1.14258,-1.195312 l 0,-4.772461 c 0,-0.65039 0.43946,-1.195313 1.14258,-1.195313 l 1.26563,0 c 0.73828,0 1.18652,0.307618 1.37109,0.922852 0.0439,0.131836 0.16699,0.202148 0.27246,0.202148 0.0439,0 0.0879,-0.0088 0.13184,-0.02637 l 1.59961,-0.580078 c 0.10546,-0.03516 0.14941,-0.105469 0.14941,-0.18457 0,-0.05273 0,-0.0791 -0.0527,-0.263672 -0.4043,-1.432616 -1.70508,-2.311523 -3.47168,-2.311523 l -1.26563,0 c -2.39062,0 -3.60351,1.265626 -3.60351,3.172851 l 0,5.299805 c 0,1.986326 1.125,3.172851 3.60351,3.172851"
         style="font-size:18px;font-variant:normal;font-weight:normal;font-stretch:normal;writing-mode:lr-tb;fill:#ffffff;fill-opacity:1;fill-rule:nonzero;stroke:none;font-family:Politics Head Bold;-inkscape-font-specification:PoliticsHead-Bold"
         id="path3266"
         inkscape:connector-curvature="0" /><path
         d="m 192.21681,-30.15477 1.86328,0 c 0.18457,0 0.29883,-0.114258 0.29883,-0.298828 l 0,-4.104492 c 0,-0.18457 0.11426,-0.298828 0.29883,-0.298828 l 3.20801,0 c 0.18457,0 0.29883,0.114258 0.29883,0.298828 l 0,4.104492 c 0,0.18457 0.11425,0.298828 0.29882,0.298828 l 1.86328,0 c 0.18458,0 0.29883,-0.114258 0.29883,-0.298828 l 0,-10.78418 c 0,-0.18457 -0.11425,-0.298828 -0.29883,-0.298828 l -1.86328,0 c -0.18457,0 -0.29882,0.114258 -0.29882,0.298828 l 0,3.840821 c 0,0.18457 -0.11426,0.298828 -0.29883,0.298828 l -3.20801,0 c -0.18457,0 -0.29883,-0.114258 -0.29883,-0.298828 l 0,-3.840821 c 0,-0.18457 -0.11426,-0.298828 -0.29883,-0.298828 l -1.86328,0 c -0.18457,0 -0.29883,0.114258 -0.29883,0.298828 l 0,10.78418 c 0,0.18457 0.11426,0.298828 0.29883,0.298828"
         style="font-size:18px;font-variant:normal;font-weight:normal;font-stretch:normal;writing-mode:lr-tb;fill:#ffffff;fill-opacity:1;fill-rule:nonzero;stroke:none;font-family:Politics Head Bold;-inkscape-font-specification:PoliticsHead-Bold"
         id="path3268"
         inkscape:connector-curvature="0" /><path
         d="m 210.62787,-30.15477 c 0.18457,0 0.29883,-0.114258 0.29883,-0.298828 l 0,-1.643555 c 0,-0.18457 -0.11426,-0.298828 -0.29883,-0.298828 l -4.41211,0 c -0.18457,0 -0.29883,-0.114258 -0.29883,-0.298828 l 0,-1.731445 c 0,-0.18457 0.11426,-0.298828 0.29883,-0.298828 l 3.62109,0 c 0.18457,0 0.29883,-0.114258 0.29883,-0.298829 l 0,-1.643554 c 0,-0.18457 -0.11426,-0.298828 -0.29883,-0.298828 l -3.62109,0 c -0.18457,0 -0.29883,-0.114258 -0.29883,-0.298828 l 0,-1.643555 c 0,-0.18457 0.11426,-0.298828 0.29883,-0.298828 l 4.41211,0 c 0.18457,0 0.29883,-0.114258 0.29883,-0.298828 l 0,-1.643555 c 0,-0.18457 -0.11426,-0.298828 -0.29883,-0.298828 l -6.87305,0 c -0.18457,0 -0.29883,0.114258 -0.29883,0.298828 l 0,10.696289 c 0,0.18457 0.11426,0.298828 0.29883,0.298828 l 6.87305,0"
         style="font-size:18px;font-variant:normal;font-weight:normal;font-stretch:normal;writing-mode:lr-tb;fill:#ffffff;fill-opacity:1;fill-rule:nonzero;stroke:none;font-family:Politics Head Bold;-inkscape-font-specification:PoliticsHead-Bold"
         id="path3270"
         inkscape:connector-curvature="0" /><path
         d="m 218.25233,-36.711411 -2.10058,0 c -0.18457,0 -0.29883,-0.114258 -0.29883,-0.298828 l 0,-1.898437 c 0,-0.18457 0.11426,-0.298828 0.29883,-0.298828 l 2.10058,0 c 0.69434,0 1.23047,0.465821 1.23047,1.089843 l 0,0.307618 c 0,0.624022 -0.55371,1.098632 -1.23047,1.098632 m -4.56152,6.556641 1.86328,0 c 0.18457,0 0.29883,-0.114258 0.29883,-0.298828 l 0,-3.796875 c 0,-0.18457 0.11426,-0.298828 0.29883,-0.298828 l 1.52051,0 c 0.0791,0 0.14941,0.03516 0.18457,0.123047 l 1.71386,4.130859 c 0.0439,0.09668 0.10547,0.140625 0.17579,0.140625 l 2.12695,0 c 0.14062,0 0.21094,-0.07031 0.21094,-0.140625 0,-0.07031 -0.0352,-0.18457 -0.11426,-0.369141 l -1.72266,-4.192382 c -0.0264,-0.07031 -0.0439,-0.123047 -0.0439,-0.19336 0,-0.07031 0.0439,-0.123047 0.13183,-0.175781 1.01074,-0.615234 1.48535,-1.529298 1.48535,-2.750977 0,-2.126951 -1.34472,-3.471679 -3.59472,-3.471679 l -4.53516,0 c -0.18457,0 -0.29883,0.114258 -0.29883,0.298828 l 0,10.696289 c 0,0.18457 0.11426,0.298828 0.29883,0.298828"
         style="font-size:18px;font-variant:normal;font-weight:normal;font-stretch:normal;writing-mode:lr-tb;fill:#ffffff;fill-opacity:1;fill-rule:nonzero;stroke:none;font-family:Politics Head Bold;-inkscape-font-specification:PoliticsHead-Bold"
         id="path3272"
         inkscape:connector-curvature="0" /><path
         d="m 224.40082,-30.15477 1.86328,0 c 0.18457,0 0.29883,-0.114258 0.29883,-0.298828 l 0,-4.104492 c 0,-0.18457 0.11426,-0.298828 0.29883,-0.298828 l 3.208,0 c 0.18457,0 0.29883,0.114258 0.29883,0.298828 l 0,4.104492 c 0,0.18457 0.11426,0.298828 0.29883,0.298828 l 1.86328,0 c 0.18457,0 0.29883,-0.114258 0.29883,-0.298828 l 0,-10.78418 c 0,-0.18457 -0.11426,-0.298828 -0.29883,-0.298828 l -1.86328,0 c -0.18457,0 -0.29883,0.114258 -0.29883,0.298828 l 0,3.840821 c 0,0.18457 -0.11426,0.298828 -0.29883,0.298828 l -3.208,0 c -0.18457,0 -0.29883,-0.114258 -0.29883,-0.298828 l 0,-3.840821 c 0,-0.18457 -0.11426,-0.298828 -0.29883,-0.298828 l -1.86328,0 c -0.18457,0 -0.29883,0.114258 -0.29883,0.298828 l 0,10.78418 c 0,0.18457 0.11426,0.298828 0.29883,0.298828"
         style="font-size:18px;font-variant:normal;font-weight:normal;font-stretch:normal;writing-mode:lr-tb;fill:#ffffff;fill-opacity:1;fill-rule:nonzero;stroke:none;font-family:Politics Head Bold;-inkscape-font-specification:PoliticsHead-Bold"
         id="path3274"
         inkscape:connector-curvature="0" /><path
         d="m 242.81186,-30.15477 c 0.18457,0 0.29883,-0.114258 0.29883,-0.298828 l 0,-1.643555 c 0,-0.18457 -0.11426,-0.298828 -0.29883,-0.298828 l -4.41211,0 c -0.18457,0 -0.29883,-0.114258 -0.29883,-0.298828 l 0,-1.731445 c 0,-0.18457 0.11426,-0.298828 0.29883,-0.298828 l 3.62109,0 c 0.18457,0 0.29883,-0.114258 0.29883,-0.298829 l 0,-1.643554 c 0,-0.18457 -0.11426,-0.298828 -0.29883,-0.298828 l -3.62109,0 c -0.18457,0 -0.29883,-0.114258 -0.29883,-0.298828 l 0,-1.643555 c 0,-0.18457 0.11426,-0.298828 0.29883,-0.298828 l 4.41211,0 c 0.18457,0 0.29883,-0.114258 0.29883,-0.298828 l 0,-1.643555 c 0,-0.18457 -0.11426,-0.298828 -0.29883,-0.298828 l -6.87305,0 c -0.18457,0 -0.29883,0.114258 -0.29883,0.298828 l 0,10.696289 c 0,0.18457 0.11426,0.298828 0.29883,0.298828 l 6.87305,0"
         style="font-size:18px;font-variant:normal;font-weight:normal;font-stretch:normal;writing-mode:lr-tb;fill:#ffffff;fill-opacity:1;fill-rule:nonzero;stroke:none;font-family:Politics Head Bold;-inkscape-font-specification:PoliticsHead-Bold"
         id="path3276"
         inkscape:connector-curvature="0" /><path
         d="m 245.87482,-30.15477 1.86328,0 c 0.18457,0 0.29883,-0.114258 0.29883,-0.298828 l 0,-10.78418 c 0,-0.18457 -0.11426,-0.298828 -0.29883,-0.298828 l -1.86328,0 c -0.18457,0 -0.29883,0.114258 -0.29883,0.298828 l 0,10.78418 c 0,0.18457 0.11426,0.298828 0.29883,0.298828"
         style="font-size:18px;font-variant:normal;font-weight:normal;font-stretch:normal;writing-mode:lr-tb;fill:#ffffff;fill-opacity:1;fill-rule:nonzero;stroke:none;font-family:Politics Head Bold;-inkscape-font-specification:PoliticsHead-Bold"
         id="path3278"
         inkscape:connector-curvature="0" /><path
         d="m 253.09999,-30.15477 1.86328,0 c 0.18457,0 0.29883,-0.114258 0.29883,-0.298828 l 0,-8.455078 c 0,-0.18457 0.11426,-0.298828 0.29883,-0.298828 l 1.96875,0 c 0.18457,0 0.29883,-0.114258 0.29883,-0.298828 l 0,-1.643555 c 0,-0.18457 -0.11426,-0.298828 -0.29883,-0.298828 l -6.9961,0 c -0.18457,0 -0.29882,0.114258 -0.29882,0.298828 l 0,1.643555 c 0,0.18457 0.11425,0.298828 0.29882,0.298828 l 1.96875,0 c 0.18457,0 0.29883,0.114258 0.29883,0.298828 l 0,8.455078 c 0,0.18457 0.11426,0.298828 0.29883,0.298828"
         style="font-size:18px;font-variant:normal;font-weight:normal;font-stretch:normal;writing-mode:lr-tb;fill:#ffffff;fill-opacity:1;fill-rule:nonzero;stroke:none;font-family:Politics Head Bold;-inkscape-font-specification:PoliticsHead-Bold"
         id="path3280"
         inkscape:connector-curvature="0" /></g><g
       id="g132"
       transform="translate(9.3271524,-17.899829)"><g
         id="g134"
         clip-path="url(#clipPath136)"><path
           d="m 30.847,106.107 221.25,0 0,23.625 -221.25,0 0,-23.625 z"
           style="fill:none;stroke:#ffffff;stroke-width:0.75;stroke-linecap:butt;stroke-linejoin:miter;stroke-miterlimit:4;stroke-opacity:1;stroke-dasharray:none"
           id="path140"
           inkscape:connector-curvature="0" /><g
           id="g142"
           transform="translate(251.9373,124.0535)"><path
             d="m 0,0 c 1.08,0 1.512,0.72 1.512,1.476 0,1.008 -1.224,3.456 -1.296,3.78 l 0.18,0.108 C 0.504,5.256 2.304,2.916 2.952,2.448 3.636,1.944 4.608,2.16 5.04,2.88 5.544,3.744 5.112,4.716 4.644,4.932 3.816,5.328 0.756,5.76 0.54,5.796 l 0,0.18 c 0.216,0 3.42,0.432 3.852,0.684 0.72,0.396 0.936,1.26 0.54,2.016 C 4.5,9.468 3.78,9.648 3.024,9.252 2.484,8.964 0.576,6.552 0.396,6.336 L 0.216,6.48 c 0.108,0.216 1.296,3.168 1.296,3.888 0,0.864 -0.612,1.296 -1.512,1.296 -0.936,0 -1.512,-0.54 -1.512,-1.476 0,-0.72 1.188,-3.384 1.296,-3.708 L -0.36,6.372 c -0.144,0.18 -2.448,2.7 -2.88,2.916 C -3.78,9.576 -4.608,9.72 -5.148,8.64 -5.652,7.668 -5.256,7.02 -4.5,6.732 -3.96,6.516 -0.936,6.048 -0.576,5.976 l 0,-0.18 C -0.864,5.724 -3.996,5.148 -4.464,4.932 -5.004,4.68 -5.58,3.708 -5.04,2.88 c 0.504,-0.792 1.296,-0.972 1.872,-0.612 0.576,0.36 2.304,2.556 2.772,3.06 L -0.252,5.22 C -0.36,4.86 -1.512,2.196 -1.512,1.476 -1.512,0.612 -0.936,0 0,0"
             style="fill:#ffffff;fill-opacity:1;fill-rule:nonzero;stroke:none"
             id="path144"
             inkscape:connector-curvature="0" /></g><g
           id="g146"
           transform="translate(251.9373,124.0535)"><path
             d="m 0,0 c 1.08,0 1.512,0.72 1.512,1.476 0,1.008 -1.224,3.456 -1.296,3.78 l 0.18,0.108 C 0.504,5.256 2.304,2.916 2.952,2.448 3.636,1.944 4.608,2.16 5.04,2.88 5.544,3.744 5.112,4.716 4.644,4.932 3.816,5.328 0.756,5.76 0.54,5.796 l 0,0.18 c 0.216,0 3.42,0.432 3.852,0.684 0.72,0.396 0.936,1.26 0.54,2.016 C 4.5,9.468 3.78,9.648 3.024,9.252 2.484,8.964 0.576,6.552 0.396,6.336 L 0.216,6.48 c 0.108,0.216 1.296,3.168 1.296,3.888 0,0.864 -0.612,1.296 -1.512,1.296 -0.936,0 -1.512,-0.54 -1.512,-1.476 0,-0.72 1.188,-3.384 1.296,-3.708 L -0.36,6.372 c -0.144,0.18 -2.448,2.7 -2.88,2.916 C -3.78,9.576 -4.608,9.72 -5.148,8.64 -5.652,7.668 -5.256,7.02 -4.5,6.732 -3.96,6.516 -0.936,6.048 -0.576,5.976 l 0,-0.18 C -0.864,5.724 -3.996,5.148 -4.464,4.932 -5.004,4.68 -5.58,3.708 -5.04,2.88 c 0.504,-0.792 1.296,-0.972 1.872,-0.612 0.576,0.36 2.304,2.556 2.772,3.06 L -0.252,5.22 C -0.36,4.86 -1.512,2.196 -1.512,1.476 -1.512,0.612 -0.936,0 0,0 z"
             style="fill:none;stroke:#f39315;stroke-width:0.75;stroke-linecap:butt;stroke-linejoin:miter;stroke-miterlimit:4;stroke-opacity:1;stroke-dasharray:none"
             id="path148"
             inkscape:connector-curvature="0" /></g></g></g><g
       id="g54"
       transform="translate(217.81373,77.631992)"><path
         d="M 0,0 0.419,-11.992 69.259,-9.588 68.841,2.404 0,0 z"
         style="fill:#2b2b2a;fill-opacity:1;fill-rule:nonzero;stroke:none"
         id="path56"
         inkscape:connector-curvature="0" /></g><g
       transform="matrix(0.99939101,0.03489439,0.03489439,-0.99939101,-44.075493,53.163223)"
       style="font-size:12px"
       id="text58"><path
         d="m 267.0149,-12.036541 0.5076,0 c 0.17834,0 0.3384,-0.160054 0.3384,-0.338398 l 0,-0.260659 c 0,-0.182917 -0.15548,-0.338398 -0.3384,-0.338398 l -0.5076,0 c -0.19664,0 -0.3384,0.155481 -0.3384,0.338398 l 0,0.260659 c 0,0.178344 0.16006,0.338398 0.3384,0.338398 m 2.14929,0 0.50759,0 c 0.17835,0 0.3384,-0.160054 0.3384,-0.338398 l 0,-0.260659 c 0,-0.182917 -0.15548,-0.338398 -0.3384,-0.338398 l -0.50759,0 c -0.19664,0 -0.3384,0.155481 -0.3384,0.338398 l 0,0.260659 c 0,0.178344 0.16005,0.338398 0.3384,0.338398 m -1.12952,6.3929851 0.65393,0 c 1.24384,0 1.87491,-0.6585059 1.87491,-1.6508352 l 0,-4.2071149 c 0,-0.09603 -0.0595,-0.15548 -0.15548,-0.15548 l -0.96947,0 c -0.096,0 -0.15548,0.05945 -0.15548,0.15548 l 0,4.0699263 c -0.005,0.342971 -0.22864,0.6219214 -0.59448,0.6219214 l -0.65393,0 c -0.36126,0 -0.59449,-0.2606586 -0.59449,-0.6219214 l 0,-4.0699263 c 0,-0.09603 -0.0594,-0.15548 -0.15548,-0.15548 l -0.96946,0 c -0.096,0 -0.15548,0.05945 -0.15548,0.15548 l 0,4.2071149 c 0,1.0289129 0.58534,1.6508352 1.87491,1.6508352"
         style="font-size:9.36540318px;font-variant:normal;font-weight:normal;font-stretch:normal;writing-mode:lr-tb;fill:#ffffff;fill-opacity:1;fill-rule:nonzero;stroke:none;font-family:Politics Head Bold;-inkscape-font-specification:PoliticsHead-Bold"
         id="path3217"
         inkscape:connector-curvature="0" /><path
         d="m 274.77343,-5.7350149 c 0.9969,0 1.64169,-0.5624741 1.65084,-1.6919918 0.005,-0.6127748 -0.27438,-1.047206 -0.7454,-1.2758533 -0.0366,-0.018292 -0.0549,-0.04573 -0.0549,-0.073167 0,-0.018292 0.005,-0.04573 0.0549,-0.073167 0.407,-0.2057826 0.65394,-0.6722243 0.65394,-1.179822 0,-1.028913 -0.70881,-1.582241 -1.82918,-1.582241 l -2.36422,0 c -0.096,0 -0.15548,0.05945 -0.15548,0.155481 l 0,5.5652812 c 0,0.096032 0.0595,0.1554803 0.15548,0.1554803 l 2.63402,0 m -1.35359,-3.5440369 c -0.096,0 -0.15548,-0.059448 -0.15548,-0.1554803 l 0,-0.9008713 c 0,-0.09603 0.0594,-0.155481 0.15548,-0.155481 l 1.07921,0 c 0.39328,0 0.60821,0.205783 0.60821,0.6036302 0,0.3978463 -0.21493,0.6082024 -0.60821,0.6082024 l -1.07921,0 m 0,2.4236639 c -0.096,0 -0.15548,-0.059448 -0.15548,-0.1554803 l 0,-0.9923303 c 0,-0.096032 0.0594,-0.1554803 0.15548,-0.1554803 l 1.17525,0 c 0.33382,0 0.59905,0.2560856 0.59905,0.649359 0,0.4115651 -0.26523,0.6539319 -0.59905,0.6539319 l -1.17525,0"
         style="font-size:9.36540318px;font-variant:normal;font-weight:normal;font-stretch:normal;writing-mode:lr-tb;fill:#ffffff;fill-opacity:1;fill-rule:nonzero;stroke:none;font-family:Politics Head Bold;-inkscape-font-specification:PoliticsHead-Bold"
         id="path3219"
         inkscape:connector-curvature="0" /><path
         d="m 281.34409,-5.7350149 c 0.096,0 0.15548,-0.059448 0.15548,-0.1554803 l 0,-0.8551418 c 0,-0.096032 -0.0595,-0.1554804 -0.15548,-0.1554804 l -2.29562,0 c -0.096,0 -0.15548,-0.059448 -0.15548,-0.1554803 l 0,-0.9008713 c 0,-0.096032 0.0595,-0.1554803 0.15548,-0.1554803 l 1.88405,0 c 0.096,0 0.15548,-0.059449 0.15548,-0.1554803 l 0,-0.8551418 c 0,-0.096032 -0.0594,-0.1554804 -0.15548,-0.1554804 l -1.88405,0 c -0.096,0 -0.15548,-0.059448 -0.15548,-0.1554803 l 0,-0.8551419 c 0,-0.09603 0.0595,-0.15548 0.15548,-0.15548 l 2.29562,0 c 0.096,0 0.15548,-0.05945 0.15548,-0.155481 l 0,-0.855141 c 0,-0.09603 -0.0595,-0.155481 -0.15548,-0.155481 l -3.57605,0 c -0.096,0 -0.15548,0.05945 -0.15548,0.155481 l 0,5.5652808 c 0,0.096032 0.0595,0.1554803 0.15548,0.1554803 l 3.57605,0"
         style="font-size:9.36540318px;font-variant:normal;font-weight:normal;font-stretch:normal;writing-mode:lr-tb;fill:#ffffff;fill-opacity:1;fill-rule:nonzero;stroke:none;font-family:Politics Head Bold;-inkscape-font-specification:PoliticsHead-Bold"
         id="path3221"
         inkscape:connector-curvature="0" /><path
         d="m 285.31111,-9.1464362 -1.09293,0 c -0.096,0 -0.15548,-0.059448 -0.15548,-0.1554803 l 0,-0.9877575 c 0,-0.09603 0.0594,-0.15548 0.15548,-0.15548 l 1.09293,0 c 0.36126,0 0.64022,0.242367 0.64022,0.5670457 l 0,0.1600533 c 0,0.3246791 -0.2881,0.5716188 -0.64022,0.5716188 m -2.37336,3.4114213 0.96947,0 c 0.096,0 0.15548,-0.059448 0.15548,-0.1554803 l 0,-1.9755148 c 0,-0.096032 0.0594,-0.1554803 0.15548,-0.1554803 l 0.79112,0 c 0.0412,0 0.0777,0.018292 0.096,0.064021 l 0.89172,2.1492869 c 0.0229,0.050302 0.0549,0.073167 0.0915,0.073167 l 1.10666,0 c 0.0732,0 0.10975,-0.036584 0.10975,-0.073167 0,-0.036584 -0.0183,-0.096032 -0.0594,-0.192064 l -0.8963,-2.1812975 c -0.0137,-0.036584 -0.0229,-0.064021 -0.0229,-0.1006049 0,-0.036584 0.0229,-0.064021 0.0686,-0.091459 0.52589,-0.3201062 0.77283,-0.7956941 0.77283,-1.4313336 0,-1.1066526 -0.69966,-1.8063156 -1.87034,-1.8063156 l -2.35964,0 c -0.096,0 -0.15548,0.05945 -0.15548,0.155481 l 0,5.5652805 c 0,0.096032 0.0595,0.1554803 0.15548,0.1554803"
         style="font-size:9.36540318px;font-variant:normal;font-weight:normal;font-stretch:normal;writing-mode:lr-tb;fill:#ffffff;fill-opacity:1;fill-rule:nonzero;stroke:none;font-family:Politics Head Bold;-inkscape-font-specification:PoliticsHead-Bold"
         id="path3223"
         inkscape:connector-curvature="0" /><path
         d="m 289.379,-5.7350149 0.9466,0 c 0.0823,0 0.13262,-0.041157 0.15091,-0.1051779 l 0.78197,-2.8992508 c 0.0686,-0.2606579 0.12347,-0.5899111 0.15548,-1.0746434 l 0.0366,0 c 0,0.6082018 0.0823,1.3856045 0.20578,1.8337533 l 0.58991,2.1492868 c 0.0137,0.054875 0.0686,0.096032 0.14633,0.096032 l 0.99691,0 c 0.0823,0 0.13719,-0.036584 0.1509,-0.1051779 l 1.21641,-5.6613132 c 0.005,-0.01829 0.0183,-0.07317 0.0183,-0.08689 0,-0.04573 -0.0366,-0.06859 -0.10518,-0.06859 l -1.09293,0 c -0.0457,0 -0.0823,0.02286 -0.0915,0.06859 l -0.41157,1.9435042 c -0.12804,0.6127748 -0.20578,1.3718857 -0.20578,1.8337532 l -0.0366,0 c -0.032,-0.4481487 -0.0823,-0.8002666 -0.15548,-1.0746434 l -0.72253,-2.702614 c -0.0137,-0.04573 -0.0457,-0.06859 -0.10975,-0.06859 l -0.94203,0 c -0.0823,0 -0.10518,0.03658 -0.1189,0.08231 l -0.52131,1.9297852 c -0.15091,0.5533265 -0.25609,1.3215833 -0.27438,1.8337532 l -0.0366,0 c -0.0183,-0.2698038 -0.0777,-0.6585053 -0.15548,-1.0746434 l -0.51675,-2.702614 c -0.009,-0.04573 -0.0366,-0.06859 -0.096,-0.06859 l -1.08836,0 c -0.0686,0 -0.10518,0.02286 -0.10518,0.06859 0,0.02287 0.0503,0.224075 0.064,0.27895 l 1.17982,5.4783951 c 0.0137,0.054875 0.0686,0.096032 0.14634,0.096032"
         style="font-size:9.36540318px;font-variant:normal;font-weight:normal;font-stretch:normal;writing-mode:lr-tb;fill:#ffffff;fill-opacity:1;fill-rule:nonzero;stroke:none;font-family:Politics Head Bold;-inkscape-font-specification:PoliticsHead-Bold"
         id="path3225"
         inkscape:connector-curvature="0" /><path
         d="m 296.76032,-7.8339993 c -0.0823,0 -0.10518,-0.036584 -0.0915,-0.096032 l 0.53046,-1.9755147 0.0229,-0.187491 0.16005,0 0.0229,0.187491 0.52589,1.9755147 c 0.0137,0.059448 -0.0137,0.096032 -0.096,0.096032 l -1.07465,0 m 1.42219,1.1661024 c 0.0686,0 0.0915,0.00915 0.10518,0.054875 l 0.21493,0.8094123 c 0.0137,0.04573 0.0457,0.068594 0.096,0.068594 l 1.13409,0 c 0.0686,0 0.1006,-0.022865 0.1006,-0.068594 0,-0.013719 0,-0.022865 -0.009,-0.050302 l -1.67827,-5.7070424 c -0.0183,-0.06402 -0.0777,-0.09603 -0.14634,-0.09603 l -1.3856,0 c -0.0686,0 -0.12805,0.03201 -0.14634,0.09603 0,0 -1.66912,5.6567399 -1.6737,5.6704588 -0.009,0.022865 -0.0183,0.064021 -0.0183,0.086886 0,0.04573 0.0366,0.068594 0.10518,0.068594 l 1.12952,0 c 0.0457,0 0.0777,-0.022865 0.0915,-0.068594 l 0.21493,-0.8094123 c 0.0137,-0.045729 0.032,-0.054875 0.10517,-0.054875 l 1.76059,0"
         style="font-size:9.36540318px;font-variant:normal;font-weight:normal;font-stretch:normal;writing-mode:lr-tb;fill:#ffffff;fill-opacity:1;fill-rule:nonzero;stroke:none;font-family:Politics Head Bold;-inkscape-font-specification:PoliticsHead-Bold"
         id="path3227"
         inkscape:connector-curvature="0" /><path
         d="m 302.53041,-5.6435559 0.65393,0 c 0.92374,0 1.60054,-0.4115663 1.81089,-1.1569565 0.0274,-0.096032 0.0274,-0.1554804 0.0274,-0.1829181 0,-0.041157 -0.0229,-0.07774 -0.0777,-0.096032 l -0.83228,-0.3018148 c -0.0229,-0.00915 -0.0457,-0.013719 -0.0686,-0.013719 -0.0549,0 -0.1189,0.036584 -0.14176,0.1051778 -0.10975,0.3292521 -0.32926,0.4801599 -0.71338,0.4801599 l -0.65851,0 c -0.36126,0 -0.59448,-0.2606586 -0.59448,-0.6219214 l 0,-2.4831122 c 0,-0.3383978 0.22865,-0.6219208 0.59448,-0.6219208 l 0.65851,0 c 0.38412,0 0.61735,0.160053 0.71338,0.48016 0.0229,0.068594 0.0869,0.1051772 0.14176,0.1051772 0.0229,0 0.0457,-0.00457 0.0686,-0.013719 l 0.83228,-0.3018142 c 0.0549,-0.01829 0.0777,-0.05488 0.0777,-0.09603 0,-0.02744 0,-0.04116 -0.0274,-0.137189 -0.21035,-0.74539 -0.88715,-1.202686 -1.80631,-1.202686 l -0.65851,0 c -1.24384,0 -1.87491,0.658506 -1.87491,1.650836 l 0,2.7574885 c 0,1.0334858 0.58534,1.6508352 1.87491,1.6508352"
         style="font-size:9.36540318px;font-variant:normal;font-weight:normal;font-stretch:normal;writing-mode:lr-tb;fill:#ffffff;fill-opacity:1;fill-rule:nonzero;stroke:none;font-family:Politics Head Bold;-inkscape-font-specification:PoliticsHead-Bold"
         id="path3229"
         inkscape:connector-curvature="0" /><path
         d="m 306.32502,-5.7350149 0.96946,0 c 0.096,0 0.15548,-0.059448 0.15548,-0.1554803 l 0,-2.1355681 c 0,-0.096032 0.0595,-0.1554803 0.15548,-0.1554803 l 1.66913,0 c 0.096,0 0.15548,0.059449 0.15548,0.1554803 l 0,2.1355681 c 0,0.096032 0.0595,0.1554803 0.15548,0.1554803 l 0.96947,0 c 0.096,0 0.15548,-0.059448 0.15548,-0.1554803 l 0,-5.6110108 c 0,-0.09603 -0.0595,-0.15548 -0.15548,-0.15548 l -0.96947,0 c -0.096,0 -0.15548,0.05945 -0.15548,0.15548 l 0,1.9983797 c 0,0.096032 -0.0594,0.1554803 -0.15548,0.1554803 l -1.66913,0 c -0.096,0 -0.15548,-0.059449 -0.15548,-0.1554803 l 0,-1.9983797 c 0,-0.09603 -0.0594,-0.15548 -0.15548,-0.15548 l -0.96946,0 c -0.096,0 -0.15548,0.05945 -0.15548,0.15548 l 0,5.6110108 c 0,0.096032 0.0595,0.1554803 0.15548,0.1554803"
         style="font-size:9.36540318px;font-variant:normal;font-weight:normal;font-stretch:normal;writing-mode:lr-tb;fill:#ffffff;fill-opacity:1;fill-rule:nonzero;stroke:none;font-family:Politics Head Bold;-inkscape-font-specification:PoliticsHead-Bold"
         id="path3231"
         inkscape:connector-curvature="0" /><path
         d="m 314.00195,-5.6435559 0.65394,0 c 1.24384,0 1.87491,-0.6585059 1.87491,-1.6508352 l 0,-4.2071149 c 0,-0.09603 -0.0595,-0.15548 -0.15549,-0.15548 l -0.96946,0 c -0.096,0 -0.15548,0.05945 -0.15548,0.15548 l 0,4.0699263 c -0.005,0.342971 -0.22865,0.6219214 -0.59448,0.6219214 l -0.65394,0 c -0.36126,0 -0.59448,-0.2606586 -0.59448,-0.6219214 l 0,-4.0699263 c 0,-0.09603 -0.0594,-0.15548 -0.15548,-0.15548 l -0.96947,0 c -0.096,0 -0.15548,0.05945 -0.15548,0.15548 l 0,4.2071149 c 0,1.0289129 0.58534,1.6508352 1.87491,1.6508352"
         style="font-size:9.36540318px;font-variant:normal;font-weight:normal;font-stretch:normal;writing-mode:lr-tb;fill:#ffffff;fill-opacity:1;fill-rule:nonzero;stroke:none;font-family:Politics Head Bold;-inkscape-font-specification:PoliticsHead-Bold"
         id="path3233"
         inkscape:connector-curvature="0" /><path
         d="m 318.1067,-5.7350149 0.96946,0 c 0.096,0 0.15548,-0.059448 0.15548,-0.1554803 l 0,-1.8703369 c 0,-0.599056 -0.064,-1.234697 -0.13719,-1.4953549 l 0.0366,0 c 0,0.018292 0.0823,0.205783 0.19206,0.4024197 l 1.84747,3.0455852 c 0.0366,0.054875 0.0777,0.073167 0.13719,0.073167 l 0.88715,0 c 0.096,0 0.15548,-0.059448 0.15548,-0.1554803 l 0,-5.6110106 c 0,-0.09603 -0.0594,-0.15548 -0.15548,-0.15548 l -0.96946,0 c -0.096,0 -0.15548,0.05945 -0.15548,0.15548 l 0,1.8794827 c 0,0.516743 0.0777,1.252989 0.17834,1.6919918 l -0.0366,0 c -0.0183,-0.059448 -0.14176,-0.3155338 -0.25151,-0.4984516 l -1.82461,-3.1644819 c -0.0274,-0.04116 -0.0732,-0.06402 -0.13262,-0.06402 l -0.89629,0 c -0.096,0 -0.15548,0.05945 -0.15548,0.15548 l 0,5.6110106 c 0,0.096032 0.0594,0.1554803 0.15548,0.1554803"
         style="font-size:9.36540318px;font-variant:normal;font-weight:normal;font-stretch:normal;writing-mode:lr-tb;fill:#ffffff;fill-opacity:1;fill-rule:nonzero;stroke:none;font-family:Politics Head Bold;-inkscape-font-specification:PoliticsHead-Bold"
         id="path3235"
         inkscape:connector-curvature="0" /><path
         d="m 325.5517,-5.6435559 0.65393,0 c 1.24384,0 1.87491,-0.6585059 1.87491,-1.6508352 l 0,-1.5456574 c 0,-0.096032 -0.0594,-0.1554803 -0.15548,-0.1554803 l -1.82461,0 c -0.096,0 -0.15548,0.059448 -0.15548,0.1554803 l 0,0.7088074 c 0,0.096032 0.0594,0.1554803 0.15548,0.1554803 l 0.58991,0 c 0.096,0 0.15548,0.059448 0.15548,0.1554803 l 0,0.3887008 c 0,0.342971 -0.22864,0.6219214 -0.59448,0.6219214 l -0.69966,0 c -0.36126,0 -0.59448,-0.2606586 -0.59448,-0.6219214 l 0,-2.4831122 c 0,-0.3383981 0.22864,-0.6219211 0.59448,-0.6219211 l 0.6768,0 c 0.38412,0 0.61734,0.141762 0.71338,0.461868 0.0229,0.06859 0.0869,0.1051777 0.14176,0.1051777 0,0 0.0457,-0.00457 0.0686,-0.013719 l 0.83228,-0.3018147 c 0.0549,-0.01829 0.0777,-0.05488 0.0777,-0.09603 0,-0.02744 0,-0.04116 -0.0274,-0.137188 -0.21035,-0.745391 -0.89172,-1.184395 -1.80631,-1.184395 l -0.6768,0 c -1.23927,0 -1.87491,0.658506 -1.87491,1.650836 l 0,2.7574888 c 0,1.0289129 0.58991,1.6508352 1.87491,1.6508352"
         style="font-size:9.36540318px;font-variant:normal;font-weight:normal;font-stretch:normal;writing-mode:lr-tb;fill:#ffffff;fill-opacity:1;fill-rule:nonzero;stroke:none;font-family:Politics Head Bold;-inkscape-font-specification:PoliticsHead-Bold"
         id="path3237"
         inkscape:connector-curvature="0" /></g><g
       id="g62"
       transform="translate(217.81373,77.631992)"><path
         d="M 0,0 0.419,-11.992 69.259,-9.588 68.841,2.404 0,0 z"
         style="fill:none;stroke:#ffffff;stroke-width:0.375;stroke-linecap:butt;stroke-linejoin:miter;stroke-miterlimit:4;stroke-opacity:1;stroke-dasharray:none"
         id="path64"
         inkscape:connector-curvature="0" /></g><g
       id="g66"
       transform="translate(286.70363,80.037692)"><path
         d="M 0,0 0.419,-11.992 30.448,-10.944 30.029,1.049 0,0 z"
         style="fill:#f39315;fill-opacity:1;fill-rule:nonzero;stroke:none"
         id="path68"
         inkscape:connector-curvature="0" /></g><g
       transform="matrix(0.99939101,0.03489439,0.03489439,-0.99939101,-44.075493,53.163223)"
       style="font-size:12px"
       id="text70"><path
         d="m 335.02451,-5.7353435 0.96947,0 c 0.096,0 0.15548,-0.059448 0.15548,-0.1554803 l 0,-1.8703368 c 0,-0.599056 -0.064,-1.234697 -0.13719,-1.4953549 l 0.0366,0 c 0,0.018292 0.0823,0.2057829 0.19207,0.4024196 l 1.84747,3.0455852 c 0.0366,0.054875 0.0777,0.073167 0.13719,0.073167 l 0.88715,0 c 0.096,0 0.15548,-0.059448 0.15548,-0.1554803 l 0,-5.61101 c 0,-0.09603 -0.0595,-0.155481 -0.15548,-0.155481 l -0.96947,0 c -0.096,0 -0.15548,0.05945 -0.15548,0.155481 l 0,1.8794822 c 0,0.5167429 0.0777,1.2529889 0.17835,1.6919918 l -0.0366,0 c -0.0183,-0.059448 -0.14177,-0.3155338 -0.25152,-0.4984517 l -1.8246,-3.1644813 c -0.0274,-0.04116 -0.0732,-0.06402 -0.13262,-0.06402 l -0.8963,0 c -0.096,0 -0.15548,0.05945 -0.15548,0.155481 l 0,5.61101 c 0,0.096032 0.0594,0.1554803 0.15548,0.1554803"
         style="font-size:9.36540318px;font-variant:normal;font-weight:normal;font-stretch:normal;writing-mode:lr-tb;fill:#ffffff;fill-opacity:1;fill-rule:nonzero;stroke:none;font-family:Politics Head Bold;-inkscape-font-specification:PoliticsHead-Bold"
         id="path3206"
         inkscape:connector-curvature="0" /><path
         d="m 340.88724,-5.7353435 0.96947,0 c 0.096,0 0.15548,-0.059448 0.15548,-0.1554803 l 0,-5.6110102 c 0,-0.09603 -0.0594,-0.155481 -0.15548,-0.155481 l -0.96947,0 c -0.096,0 -0.15548,0.05945 -0.15548,0.155481 l 0,5.6110102 c 0,0.096032 0.0594,0.1554803 0.15548,0.1554803"
         style="font-size:9.36540318px;font-variant:normal;font-weight:normal;font-stretch:normal;writing-mode:lr-tb;fill:#ffffff;fill-opacity:1;fill-rule:nonzero;stroke:none;font-family:Politics Head Bold;-inkscape-font-specification:PoliticsHead-Bold"
         id="path3208"
         inkscape:connector-curvature="0" /><path
         d="m 345.25926,-5.6438844 0.65394,0 c 0.92373,0 1.60053,-0.4115664 1.81088,-1.1569566 0.0274,-0.096032 0.0274,-0.1554803 0.0274,-0.182918 0,-0.041156 -0.0229,-0.07774 -0.0777,-0.096032 l -0.83228,-0.3018147 c -0.0229,-0.00915 -0.0457,-0.013719 -0.0686,-0.013719 -0.0549,0 -0.1189,0.036584 -0.14176,0.1051779 -0.10975,0.3292521 -0.32925,0.4801598 -0.71338,0.4801598 l -0.65851,0 c -0.36126,0 -0.59448,-0.2606585 -0.59448,-0.6219213 l 0,-2.4831123 c 0,-0.3383974 0.22865,-0.6219214 0.59448,-0.6219214 l 0.65851,0 c 0.38413,0 0.61735,0.160054 0.71338,0.48016 0.0229,0.068594 0.0869,0.1051778 0.14176,0.1051778 0.0229,0 0.0457,-0.00457 0.0686,-0.013719 l 0.83228,-0.3018148 c 0.0549,-0.01829 0.0777,-0.05488 0.0777,-0.09603 0,-0.02744 0,-0.04116 -0.0274,-0.137188 -0.21035,-0.74539 -0.88715,-1.202686 -1.80631,-1.202686 l -0.65851,0 c -1.24384,0 -1.87491,0.658506 -1.87491,1.650835 l 0,2.757489 c 0,1.0334859 0.58534,1.6508353 1.87491,1.6508353"
         style="font-size:9.36540318px;font-variant:normal;font-weight:normal;font-stretch:normal;writing-mode:lr-tb;fill:#ffffff;fill-opacity:1;fill-rule:nonzero;stroke:none;font-family:Politics Head Bold;-inkscape-font-specification:PoliticsHead-Bold"
         id="path3210"
         inkscape:connector-curvature="0" /><path
         d="m 349.05387,-5.7353435 0.96947,0 c 0.096,0 0.15548,-0.059448 0.15548,-0.1554803 l 0,-2.135568 c 0,-0.096032 0.0594,-0.1554803 0.15548,-0.1554803 l 1.66912,0 c 0.096,0 0.15548,0.059448 0.15548,0.1554803 l 0,2.135568 c 0,0.096032 0.0594,0.1554803 0.15548,0.1554803 l 0.96947,0 c 0.096,0 0.15548,-0.059448 0.15548,-0.1554803 l 0,-5.6110102 c 0,-0.09603 -0.0594,-0.155481 -0.15548,-0.155481 l -0.96947,0 c -0.096,0 -0.15548,0.05945 -0.15548,0.155481 l 0,1.9983791 c 0,0.096032 -0.0594,0.1554803 -0.15548,0.1554803 l -1.66912,0 c -0.096,0 -0.15548,-0.059448 -0.15548,-0.1554803 l 0,-1.9983791 c 0,-0.09603 -0.0594,-0.155481 -0.15548,-0.155481 l -0.96947,0 c -0.096,0 -0.15548,0.05945 -0.15548,0.155481 l 0,5.6110102 c 0,0.096032 0.0594,0.1554803 0.15548,0.1554803"
         style="font-size:9.36540318px;font-variant:normal;font-weight:normal;font-stretch:normal;writing-mode:lr-tb;fill:#ffffff;fill-opacity:1;fill-rule:nonzero;stroke:none;font-family:Politics Head Bold;-inkscape-font-specification:PoliticsHead-Bold"
         id="path3212"
         inkscape:connector-curvature="0" /><path
         d="m 356.0723,-5.7353435 0.96947,0 c 0.096,0 0.15548,-0.059448 0.15548,-0.1554803 l 0,-4.3991782 c 0,-0.09603 0.0594,-0.155481 0.15548,-0.155481 l 1.02434,0 c 0.096,0 0.15548,-0.05945 0.15548,-0.15548 l 0,-0.855142 c 0,-0.09603 -0.0595,-0.15548 -0.15548,-0.15548 l -3.64007,0 c -0.096,0 -0.15548,0.05945 -0.15548,0.15548 l 0,0.855142 c 0,0.09603 0.0594,0.15548 0.15548,0.15548 l 1.02434,0 c 0.096,0 0.15548,0.05945 0.15548,0.155481 l 0,4.3991782 c 0,0.096032 0.0595,0.1554803 0.15548,0.1554803"
         style="font-size:9.36540318px;font-variant:normal;font-weight:normal;font-stretch:normal;writing-mode:lr-tb;fill:#ffffff;fill-opacity:1;fill-rule:nonzero;stroke:none;font-family:Politics Head Bold;-inkscape-font-specification:PoliticsHead-Bold"
         id="path3214"
         inkscape:connector-curvature="0" /></g><g
       id="g74"
       transform="translate(286.70363,80.037692)"><path
         d="M 0,0 0.419,-11.992 30.448,-10.944 30.029,1.049 0,0 z"
         style="fill:none;stroke:#ffffff;stroke-width:0.375;stroke-linecap:butt;stroke-linejoin:miter;stroke-miterlimit:4;stroke-opacity:1;stroke-dasharray:none"
         id="path76"
         inkscape:connector-curvature="0" /></g><g
       id="g86"
       transform="translate(218.84086,72.414933)"><path
         d="m 0,0 c 0.78,0 1.092,0.52 1.092,1.066 0,0.728 -0.884,2.496 -0.936,2.73 l 0.13,0.078 C 0.364,3.796 1.664,2.106 2.132,1.768 2.626,1.404 3.328,1.56 3.64,2.08 4.004,2.704 3.692,3.406 3.354,3.562 2.756,3.848 0.546,4.16 0.39,4.186 l 0,0.13 c 0.156,0 2.47,0.312 2.782,0.494 0.52,0.286 0.676,0.91 0.39,1.456 C 3.25,6.838 2.73,6.968 2.184,6.682 1.794,6.474 0.416,4.732 0.286,4.576 L 0.156,4.68 C 0.234,4.836 1.092,6.968 1.092,7.488 1.092,8.112 0.65,8.424 0,8.424 c -0.676,0 -1.092,-0.39 -1.092,-1.066 0,-0.52 0.858,-2.444 0.936,-2.678 L -0.26,4.602 C -0.364,4.732 -2.028,6.552 -2.34,6.708 -2.73,6.916 -3.328,7.02 -3.718,6.24 -4.082,5.538 -3.796,5.07 -3.25,4.862 -2.86,4.706 -0.676,4.368 -0.416,4.316 l 0,-0.13 C -0.624,4.134 -2.886,3.718 -3.224,3.562 -3.614,3.38 -4.03,2.678 -3.64,2.08 c 0.364,-0.572 0.936,-0.702 1.352,-0.442 0.416,0.26 1.664,1.846 2.002,2.21 L -0.182,3.77 C -0.26,3.51 -1.092,1.586 -1.092,1.066 -1.092,0.442 -0.676,0 0,0"
         style="fill:#ffffff;fill-opacity:1;fill-rule:nonzero;stroke:none"
         id="path88"
         inkscape:connector-curvature="0" /></g><g
       id="g3033"
       transform="matrix(0.07234376,0,0,-0.07234376,46.120733,56.122134)"><path
         id="path3035"
         d="m 594.506,339.729 c 0,140.709 -114.058,254.782 -254.781,254.782 -140.701,0 -254.769,-114.071 -254.769,-254.782 0,-140.701 114.067,-254.771 254.769,-254.771 140.723,-0.002 254.781,114.069 254.781,254.771 z"
         inkscape:connector-curvature="0"
         style="fill:#ffffff" /><path
         id="path3037"
         d="m 581.064,339.729 c 0,133.294 -108.045,241.349 -241.34,241.349 -133.279,0 -241.331,-108.055 -241.331,-241.349 0,-133.285 108.052,-241.331 241.331,-241.331 133.297,-10e-4 241.34,108.045 241.34,241.331 z"
         inkscape:connector-curvature="0"
         style="fill:#ff8800" /><g
         id="g3039"><path
           id="path3041"
           d="m 339.594,156.111 c -101.358,0 -183.482,82.39 -183.482,183.758 0,101.351 82.124,183.751 183.482,183.751 101.346,0 183.758,-82.4 183.758,-183.751 0,-101.35 -82.414,-183.758 -183.758,-183.758 l 0,0 z"
           inkscape:connector-curvature="0"
           style="fill:#ffffff" /><path
           id="path3043"
           d="m 339.594,169.912 c -93.739,0 -169.676,76.197 -169.676,169.957 0,93.732 75.937,169.938 169.676,169.938 93.731,0 169.952,-76.205 169.952,-169.938 0,-93.743 -76.221,-169.957 -169.952,-169.957 l 0,0 z"
           inkscape:connector-curvature="0"
           style="fill:#ffffff" /><path
           id="path3045"
           d="m 291.504,382.127 c 2.098,-1.143 4.346,-2.213 6.695,-3.232 27.987,-12.062 41.837,-33.271 41.837,-59.375 0,-25.88 -19.126,-48.435 -48.532,-56.321 v 118.928 l 0,0 z M 347.732,244.37 c 62.26,1.932 98.458,30.257 98.458,71.805 0,37.98 -23.481,58.768 -100.763,72.48 -57.562,10.227 -72.794,24.107 -72.794,47.812 0,14.522 4.853,25.646 13.348,35.608 -12.931,-8.118 -23.323,-24.883 -23.323,-43.857 0,-11.658 3.444,-22.712 11.255,-32.059 V 260.376 c -1.921,-0.123 -3.861,-0.184 -5.848,-0.184 -0.862,0 -1.701,0.035 -2.521,0.087 -1.05,0.07 -1.374,-1.15 -0.271,-1.626 2.665,-1.115 5.556,-2.213 8.641,-3.249 v -28.537 c 0,-0.589 0.465,-1.062 1.054,-1.062 h 15.478 c 0.577,0 1.06,0.474 1.06,1.062 v 23.659 c 18.488,-4.242 39.626,-6.675 56.226,-6.156 l 0,0 z"
           inkscape:connector-curvature="0"
           style="fill:#1d1d1b" /><path
           id="path3047"
           d="m 339.602,186.2 c 84.925,0 153.646,68.748 153.646,153.668 0,84.913 -68.722,153.65 -153.646,153.65 -84.899,0 -153.388,-68.737 -153.388,-153.65 0,-84.92 68.488,-153.668 153.388,-153.668 l 0,0 z m -0.008,-16.288 c -93.739,0 -169.676,76.197 -169.676,169.957 0,93.732 75.937,169.938 169.676,169.938 93.731,0 169.952,-76.205 169.952,-169.938 0,-93.743 -76.221,-169.957 -169.952,-169.957 l 0,0 z"
           inkscape:connector-curvature="0"
           style="fill:#1d1d1b" /></g><path
         id="path3049"
         d="m 695.682,324.893 c 9.902,0 16.276,-5.718 16.276,-13.715 v -6.033 c 0,-7.964 -6.374,-14.345 -16.276,-14.345 h -23.589 c -2.228,0 -2.859,0.928 -2.859,2.844 v 28.72 c 0,1.587 0.632,2.528 2.859,2.528 h 23.589 z m -59.977,94.705 c -1.275,0 -2.202,-0.61 -2.202,-2.546 V 262.394 c 0,-1.933 0.927,-2.526 2.202,-2.526 h 59.037 c 31.226,0 51.943,16.242 51.943,44.964 v 8.262 c 0,24.869 -21.33,41.113 -51.943,41.113 h -22.648 c -2.228,0 -2.859,1.01 -2.859,2.595 v 60.251 c 0,1.936 -0.978,2.546 -2.556,2.546 l -30.974,-10e-4 0,0 z"
         inkscape:connector-curvature="0"
         style="fill:#ffffff" /><path
         id="path3051"
         d="m 781.464,419.598 c -1.249,0 -2.228,-0.61 -2.228,-2.546 V 262.394 c 0,-1.933 0.979,-2.526 2.228,-2.526 h 30.929 c 0.954,0 2.581,0.594 2.581,2.526 v 154.658 c 0,1.936 -0.938,2.546 -2.581,2.546 h -30.929 z"
         inkscape:connector-curvature="0"
         style="fill:#ffffff" /><path
         id="path3053"
         d="m 932.311,324.893 c 9.562,0 16.264,-5.718 16.264,-14.657 v -4.148 c 0,-8.906 -6.355,-15.286 -16.264,-15.286 h -30.315 c -2.229,0 -2.828,0.928 -2.828,2.844 v 28.72 c 0,1.587 0.601,2.528 2.828,2.528 l 30.315,-0.001 0,0 z m -66.655,94.705 c -1.27,0 -2.21,-0.61 -2.21,-2.546 V 262.394 c 0,-1.933 0.94,-2.526 2.21,-2.526 h 66.652 c 31.234,0 51.676,18.474 51.676,48.449 v 2.232 c 0,15.282 -8.325,28.076 -19.779,34.403 -1.318,0.694 -1.926,1.671 -1.926,2.561 0,0.994 0.335,1.604 0.606,2.581 l 25.861,66.362 c 0,0.595 0.327,0.892 0.327,1.238 0,0.961 -0.611,1.901 -2.575,1.901 h -32.854 c -0.933,0 -1.887,-0.61 -2.26,-1.901 l -24.483,-61.853 c -0.645,-1.287 -1.28,-1.638 -2.246,-1.638 h -22.662 c -2.229,0 -2.828,1.01 -2.828,2.595 v 60.251 c 0,1.936 -0.984,2.546 -2.537,2.546 l -30.972,0.003 0,0 z"
         inkscape:connector-curvature="0"
         style="fill:#ffffff" /><path
         id="path3055"
         d="m 1183.258,419.598 c -1.255,0 -2.194,-0.61 -2.194,-2.546 V 293.644 c 0,-1.916 -0.658,-2.844 -3.214,-2.844 h -30.246 c -1.636,0 -2.583,-0.628 -2.583,-2.262 v -26.145 c 0,-1.933 0.947,-2.526 2.583,-2.526 h 102.676 c 0.586,0 2.241,0.594 2.241,2.526 v 26.145 c 0,1.634 -0.992,2.262 -2.241,2.262 h -30.664 c -2.557,0 -3.143,0.928 -3.143,2.844 v 123.408 c 0,1.936 -0.96,2.546 -2.278,2.546 h -30.937 z"
         inkscape:connector-curvature="0"
         style="fill:#ffffff" /><path
         id="path3057"
         d="m 1285.335,419.598 c -1.313,0 -2.247,-0.61 -2.247,-2.546 V 262.394 c 0,-1.933 0.934,-2.526 2.247,-2.526 h 101.085 c 1.274,0 2.588,0.594 2.588,2.526 v 26.145 c 0,1.634 -0.992,2.262 -2.588,2.262 h -64.71 c -2.252,0 -2.91,0.928 -2.91,2.844 v 26.771 c 0,1.65 0.658,2.545 2.91,2.545 h 53.219 c 1.312,0 2.902,0.694 2.902,2.247 v 26.457 c 0,1.949 -1.59,2.543 -2.902,2.543 h -53.219 c -2.252,0 -2.91,1.01 -2.91,2.595 v 29.001 c 0,1.605 0.658,2.547 2.91,2.547 h 64.71 c 1.274,0 2.588,0.628 2.588,2.578 v 26.125 c 0,1.936 -0.992,2.546 -2.588,2.546 h -101.085 v -0.002 z"
         inkscape:connector-curvature="0"
         style="fill:#ffffff" /><path
         id="path3059"
         d="m 1430.778,419.598 c -1.319,0 -2.261,-0.61 -2.261,-2.546 V 262.394 c 0,-1.933 0.94,-2.526 2.261,-2.526 h 26.745 c 1.691,0 2.582,0.594 3.241,1.898 l 44.246,81.933 c 2.91,5.42 5.17,11.172 5.446,11.831 h 0.941 c 0,-1.917 -0.941,-24.869 -0.941,-46.601 v -46.536 c 0,-1.933 0.663,-2.526 2.203,-2.526 h 29.672 c 1.295,0 2.574,0.594 2.574,2.526 v 154.658 c 0,1.936 -0.944,2.546 -2.586,2.546 h -26.752 c -0.939,0 -1.598,-0.61 -2.53,-1.901 l -44.681,-80.691 c -2.853,-5.104 -5.104,-10.507 -5.104,-10.808 h -0.941 c 0,1.555 1.313,24.854 1.313,45.263 v 45.593 c 0,1.936 -1.313,2.546 -2.86,2.546 l -29.986,-10e-4 0,0 z"
         inkscape:connector-curvature="0"
         style="fill:#ffffff" /><path
         id="path3061"
         d="m 1058.197,366.083 c -2.201,0 -2.536,-0.961 -2.536,-2.562 l 14.621,-55.985 0.593,-2.894 h 0.186 3.848 0.166 l 0.637,2.894 14.616,55.985 c 0,1.602 -0.31,2.562 -2.55,2.562 h -29.581 z m 37.55,27 c 1.925,0 2.536,0.314 2.864,1.571 l 6.545,22.951 c 0.31,1.291 1.299,1.901 2.512,1.901 h 28.809 c 1.86,0 2.797,-0.61 2.827,-1.8 0,-0.35 -0.127,-0.928 -0.271,-1.341 l -1.148,-3.982 -44.883,-150.823 c -0.405,-1.306 -0.985,-1.603 -2.555,-1.603 H 1055.9 c -1.615,0 -2.203,0.348 -2.575,1.603 l -44.206,150.823 -1.105,3.982 c -0.213,0.478 -0.265,0.991 -0.265,1.341 0.052,1.188 0.94,1.8 2.813,1.8 h 27.882 c 1.263,0 2.202,-0.61 2.562,-1.901 l 6.549,-22.951 c 0.298,-1.257 0.923,-1.571 2.86,-1.571 h 45.332 z"
         inkscape:connector-curvature="0"
         style="fill:#ffffff" /><path
         id="path3063"
         d="m 695.682,324.893 c 9.902,0 16.276,-5.718 16.276,-13.715 v -6.033 c 0,-7.964 -6.374,-14.345 -16.276,-14.345 h -23.589 c -2.228,0 -2.859,0.928 -2.859,2.844 v 28.72 c 0,1.587 0.632,2.528 2.859,2.528 h 23.589 z m -59.977,94.705 c -1.275,0 -2.202,-0.61 -2.202,-2.546 V 262.394 c 0,-1.933 0.927,-2.526 2.202,-2.526 h 59.037 c 31.226,0 51.943,16.242 51.943,44.964 v 8.262 c 0,24.869 -21.33,41.113 -51.943,41.113 h -22.648 c -2.228,0 -2.859,1.01 -2.859,2.595 v 60.251 c 0,1.936 -0.978,2.546 -2.556,2.546 l -30.974,-10e-4 0,0 z"
         inkscape:connector-curvature="0"
         style="fill:#ffffff" /><path
         id="path3065"
         d="m 781.464,419.598 c -1.249,0 -2.228,-0.61 -2.228,-2.546 V 262.394 c 0,-1.933 0.979,-2.526 2.228,-2.526 h 30.929 c 0.954,0 2.581,0.594 2.581,2.526 v 154.658 c 0,1.936 -0.938,2.546 -2.581,2.546 h -30.929 z"
         inkscape:connector-curvature="0"
         style="fill:#ffffff" /><path
         id="path3067"
         d="m 932.311,324.893 c 9.562,0 16.264,-5.718 16.264,-14.657 v -4.148 c 0,-8.906 -6.355,-15.286 -16.264,-15.286 h -30.315 c -2.229,0 -2.828,0.928 -2.828,2.844 v 28.72 c 0,1.587 0.601,2.528 2.828,2.528 l 30.315,-0.001 0,0 z m -66.655,94.705 c -1.27,0 -2.21,-0.61 -2.21,-2.546 V 262.394 c 0,-1.933 0.94,-2.526 2.21,-2.526 h 66.652 c 31.234,0 51.676,18.474 51.676,48.449 v 2.232 c 0,15.282 -8.325,28.076 -19.779,34.403 -1.318,0.694 -1.926,1.671 -1.926,2.561 0,0.994 0.335,1.604 0.606,2.581 l 25.861,66.362 c 0,0.595 0.327,0.892 0.327,1.238 0,0.961 -0.611,1.901 -2.575,1.901 h -32.854 c -0.933,0 -1.887,-0.61 -2.26,-1.901 l -24.483,-61.853 c -0.645,-1.287 -1.28,-1.638 -2.246,-1.638 h -22.662 c -2.229,0 -2.828,1.01 -2.828,2.595 v 60.251 c 0,1.936 -0.984,2.546 -2.537,2.546 l -30.972,0.003 0,0 z"
         inkscape:connector-curvature="0"
         style="fill:#ffffff" /><path
         id="path3069"
         d="m 1183.258,419.598 c -1.255,0 -2.194,-0.61 -2.194,-2.546 V 293.644 c 0,-1.916 -0.658,-2.844 -3.214,-2.844 h -30.246 c -1.636,0 -2.583,-0.628 -2.583,-2.262 v -26.145 c 0,-1.933 0.947,-2.526 2.583,-2.526 h 102.676 c 0.586,0 2.241,0.594 2.241,2.526 v 26.145 c 0,1.634 -0.992,2.262 -2.241,2.262 h -30.664 c -2.557,0 -3.143,0.928 -3.143,2.844 v 123.408 c 0,1.936 -0.96,2.546 -2.278,2.546 h -30.937 z"
         inkscape:connector-curvature="0"
         style="fill:#ffffff" /><path
         id="path3071"
         d="m 1285.335,419.598 c -1.313,0 -2.247,-0.61 -2.247,-2.546 V 262.394 c 0,-1.933 0.934,-2.526 2.247,-2.526 h 101.085 c 1.274,0 2.588,0.594 2.588,2.526 v 26.145 c 0,1.634 -0.992,2.262 -2.588,2.262 h -64.71 c -2.252,0 -2.91,0.928 -2.91,2.844 v 26.771 c 0,1.65 0.658,2.545 2.91,2.545 h 53.219 c 1.312,0 2.902,0.694 2.902,2.247 v 26.457 c 0,1.949 -1.59,2.543 -2.902,2.543 h -53.219 c -2.252,0 -2.91,1.01 -2.91,2.595 v 29.001 c 0,1.605 0.658,2.547 2.91,2.547 h 64.71 c 1.274,0 2.588,0.628 2.588,2.578 v 26.125 c 0,1.936 -0.992,2.546 -2.588,2.546 h -101.085 v -0.002 z"
         inkscape:connector-curvature="0"
         style="fill:#ffffff" /><path
         id="path3073"
         d="m 1430.778,419.598 c -1.319,0 -2.261,-0.61 -2.261,-2.546 V 262.394 c 0,-1.933 0.94,-2.526 2.261,-2.526 h 26.745 c 1.691,0 2.582,0.594 3.241,1.898 l 44.246,81.933 c 2.91,5.42 5.17,11.172 5.446,11.831 h 0.941 c 0,-1.917 -0.941,-24.869 -0.941,-46.601 v -46.536 c 0,-1.933 0.663,-2.526 2.203,-2.526 h 29.672 c 1.295,0 2.574,0.594 2.574,2.526 v 154.658 c 0,1.936 -0.944,2.546 -2.586,2.546 h -26.752 c -0.939,0 -1.598,-0.61 -2.53,-1.901 l -44.681,-80.691 c -2.853,-5.104 -5.104,-10.507 -5.104,-10.808 h -0.941 c 0,1.555 1.313,24.854 1.313,45.263 v 45.593 c 0,1.936 -1.313,2.546 -2.86,2.546 l -29.986,-10e-4 0,0 z"
         inkscape:connector-curvature="0"
         style="fill:#ffffff" /><path
         id="path3075"
         d="m 1058.197,366.083 c -2.201,0 -2.536,-0.961 -2.536,-2.562 l 14.621,-55.985 0.593,-2.894 h 0.186 3.848 0.166 l 0.637,2.894 14.616,55.985 c 0,1.602 -0.31,2.562 -2.55,2.562 h -29.581 z m 37.55,27 c 1.925,0 2.536,0.314 2.864,1.571 l 6.545,22.951 c 0.31,1.291 1.299,1.901 2.512,1.901 h 28.809 c 1.86,0 2.797,-0.61 2.827,-1.8 0,-0.35 -0.127,-0.928 -0.271,-1.341 l -1.148,-3.982 -44.883,-150.823 c -0.405,-1.306 -0.985,-1.603 -2.555,-1.603 H 1055.9 c -1.615,0 -2.203,0.348 -2.575,1.603 l -44.206,150.823 -1.105,3.982 c -0.213,0.478 -0.265,0.991 -0.265,1.341 0.052,1.188 0.94,1.8 2.813,1.8 h 27.882 c 1.263,0 2.202,-0.61 2.562,-1.901 l 6.549,-22.951 c 0.298,-1.257 0.923,-1.571 2.86,-1.571 h 45.332 z"
         inkscape:connector-curvature="0"
         style="fill:#ffffff" /></g></g></svg>